<svg width="323" height="160" viewBox="0 0 323 160" fill="none" xmlns="http://www.w3.org/2000/svg">
<g clip-path="url(#clip0_227_756)">
<rect width="323" height="160" rx="8" fill="#DEEDFF"/>
<circle cx="159.5" cy="144.5" r="135.25" stroke="#7EB9FF" stroke-width="0.5"/>
<path d="M67.2211 18.1014C67.2854 18.1171 67.3497 18.1328 67.4223 18.1161C67.9935 18.1524 68.4873 17.6882 68.531 17.1141L68.8043 11.8838C68.848 11.3097 68.3922 10.8201 67.821 10.7838C67.2498 10.7476 66.756 11.2117 66.7123 11.7858L66.4307 17.0485C66.4035 17.5578 66.7389 17.9837 67.2211 18.1014Z" fill="#B3C7DE"/>
<path d="M60.7127 21.269C61.0694 21.3451 61.4302 21.251 61.6977 20.966C62.099 20.5385 62.0755 19.8835 61.6548 19.4859L55.624 13.787C55.2032 13.3894 54.5506 13.4212 54.1493 13.8488C53.748 14.2763 53.7715 14.9313 54.1923 15.3289L60.2304 20.9951C60.3706 21.1277 60.5506 21.2345 60.7127 21.269Z" fill="#B3C7DE"/>
<path d="M52.165 27.2378C52.2617 27.2614 52.3583 27.285 52.4632 27.2761L58.5225 26.9974C59.1114 26.9689 59.5419 26.4881 59.5213 25.8971C59.5007 25.3062 59.0274 24.8805 58.4384 24.909L52.3792 25.1877C51.7902 25.2162 51.3597 25.6971 51.3803 26.288C51.4018 26.7413 51.7462 27.1356 52.165 27.2378Z" fill="#B3C7DE"/>
<circle cx="159.5" cy="144.5" r="108.25" stroke="#7EB9FF" stroke-width="0.5"/>
<g filter="url(#filter0_d_227_756)">
<path d="M239.706 16.0537C241.328 16.0539 242.643 17.3692 242.643 18.9912V30.0537H250.971C252.593 30.0537 253.908 31.3691 253.908 32.9912V229.773H64.7676V32.9912C64.7676 31.3691 66.083 30.0537 67.7051 30.0537H204.696V18.9912C204.696 17.3692 206.011 16.0539 207.633 16.0537H239.706Z" fill="white"/>
</g>
<path d="M221.408 22.5139H226.035C226.19 22.5139 226.298 22.5892 226.357 22.7398C226.417 22.8789 226.393 23.0005 226.286 23.1048L223.972 25.3467C223.901 25.4162 223.817 25.451 223.721 25.451C223.626 25.451 223.542 25.4162 223.47 25.3467L221.157 23.1048C221.049 23.0005 221.025 22.8789 221.085 22.7398C221.145 22.5892 221.253 22.5139 221.408 22.5139Z" fill="#23282D"/>
<g clip-path="url(#clip1_227_756)">
<path d="M66.7676 30.4019H251.768C252.734 30.4019 253.518 31.1854 253.518 32.1519V69.0972H65.0176V32.1519C65.0176 31.1854 65.8011 30.4019 66.7676 30.4019Z" stroke="#E6E9F1" stroke-width="0.5"/>
<path d="M85.2314 46.348H86.4847L84.823 52.2498H83.6459L82.9332 48.7984L82.725 47.6573L82.5168 48.7984L81.8041 52.2498H80.659L78.9854 46.348H80.2946L81.0754 49.7273L81.2436 50.6682L81.4157 49.7473L82.0804 46.348H83.3816L84.0823 49.7273L84.2625 50.6682L84.4427 49.7633L85.2314 46.348ZM91.0852 49.6873V52.2498H89.92V49.5952C89.92 49.3603 89.88 49.1708 89.7999 49.0266C89.6958 48.8237 89.4983 48.7223 89.2073 48.7223C88.9057 48.7223 88.6761 48.8237 88.5187 49.0266C88.3638 49.2268 88.2864 49.5138 88.2864 49.8875V52.2498H87.1493V46.368H88.2864V48.4541C88.4519 48.2005 88.6428 48.0243 88.859 47.9255C89.0779 47.8241 89.3074 47.7734 89.5477 47.7734C89.8173 47.7734 90.0615 47.8201 90.2804 47.9135C90.5019 48.0069 90.6834 48.1498 90.8249 48.3419C90.945 48.5048 91.0184 48.6729 91.0451 48.8464C91.0718 49.0173 91.0852 49.2975 91.0852 49.6873ZM92.3184 48.358C92.62 47.9736 93.1378 47.7814 93.8719 47.7814C94.3497 47.7814 94.7741 47.8762 95.1451 48.0657C95.5161 48.2552 95.7017 48.6129 95.7017 49.1387V51.1407C95.7017 51.2795 95.7043 51.4476 95.7097 51.6452C95.7177 51.7946 95.7404 51.8961 95.7777 51.9495C95.8151 52.0028 95.8712 52.0469 95.9459 52.0816V52.2498H94.7047C94.67 52.1617 94.646 52.0789 94.6326 52.0015C94.6193 51.9241 94.6086 51.836 94.6006 51.7373C94.4431 51.9081 94.2616 52.0536 94.0561 52.1737C93.8105 52.3152 93.5329 52.3859 93.2232 52.3859C92.8282 52.3859 92.5012 52.2738 92.2423 52.0496C91.986 51.8227 91.8579 51.5024 91.8579 51.0886C91.8579 50.5521 92.0648 50.1637 92.4785 49.9235C92.7054 49.7927 93.0391 49.6993 93.4795 49.6432L93.8679 49.5952C94.0787 49.5685 94.2296 49.5351 94.3203 49.4951C94.4831 49.4257 94.5646 49.3176 94.5646 49.1708C94.5646 48.9919 94.5018 48.8691 94.3764 48.8024C94.2536 48.733 94.0721 48.6983 93.8318 48.6983C93.5622 48.6983 93.3714 48.765 93.2593 48.8985C93.1792 48.9972 93.1258 49.1307 93.0991 49.2989H91.998C92.0221 48.9172 92.1288 48.6035 92.3184 48.358ZM93.1672 51.425C93.274 51.513 93.4048 51.5571 93.5596 51.5571C93.8051 51.5571 94.0307 51.485 94.2362 51.3409C94.4444 51.1967 94.5525 50.9338 94.5605 50.5521V50.1277C94.4885 50.1731 94.4151 50.2104 94.3403 50.2398C94.2683 50.2665 94.1682 50.2918 94.04 50.3159L93.7838 50.3639C93.5436 50.4066 93.3714 50.4587 93.2673 50.5201C93.0911 50.6242 93.003 50.7857 93.003 51.0045C93.003 51.1994 93.0577 51.3395 93.1672 51.425ZM98.7166 51.437V52.2898L98.1761 52.3098C97.6369 52.3285 97.2685 52.2351 97.071 52.0295C96.9429 51.8987 96.8788 51.6972 96.8788 51.425V48.7383H96.2702V47.9255H96.8788V46.7083H98.0079V47.9255H98.7166V48.7383H98.0079V51.0446C98.0079 51.2234 98.0306 51.3355 98.076 51.3809C98.1214 51.4236 98.2602 51.445 98.4924 51.445C98.5271 51.445 98.5631 51.445 98.6005 51.445C98.6405 51.4423 98.6792 51.4396 98.7166 51.437ZM105.507 49.451H104.338C104.317 49.2882 104.262 49.1414 104.174 49.0106C104.046 48.8344 103.847 48.7463 103.577 48.7463C103.193 48.7463 102.93 48.9372 102.789 49.3189C102.714 49.5218 102.676 49.7914 102.676 50.1277C102.676 50.448 102.714 50.7056 102.789 50.9004C102.925 51.2635 103.181 51.445 103.557 51.445C103.824 51.445 104.014 51.3729 104.126 51.2288C104.238 51.0846 104.306 50.8978 104.33 50.6682H105.495C105.469 51.0152 105.343 51.3435 105.119 51.6532C104.761 52.1523 104.231 52.4019 103.529 52.4019C102.827 52.4019 102.311 52.1937 101.98 51.7773C101.649 51.3609 101.483 50.8204 101.483 50.1557C101.483 49.4056 101.666 48.8224 102.032 48.406C102.398 47.9896 102.902 47.7814 103.545 47.7814C104.093 47.7814 104.54 47.9042 104.887 48.1498C105.236 48.3953 105.443 48.8291 105.507 49.451ZM109.936 48.438C110.304 48.8998 110.488 49.4457 110.488 50.0756C110.488 50.7163 110.304 51.2648 109.936 51.7212C109.567 52.175 109.008 52.4019 108.258 52.4019C107.508 52.4019 106.949 52.175 106.58 51.7212C106.212 51.2648 106.028 50.7163 106.028 50.0756C106.028 49.4457 106.212 48.8998 106.58 48.438C106.949 47.9763 107.508 47.7454 108.258 47.7454C109.008 47.7454 109.567 47.9763 109.936 48.438ZM108.254 48.7103C107.92 48.7103 107.663 48.8291 107.481 49.0667C107.302 49.3015 107.213 49.6379 107.213 50.0756C107.213 50.5134 107.302 50.8511 107.481 51.0886C107.663 51.3262 107.92 51.445 108.254 51.445C108.588 51.445 108.844 51.3262 109.023 51.0886C109.201 50.8511 109.291 50.5134 109.291 50.0756C109.291 49.6379 109.201 49.3015 109.023 49.0667C108.844 48.8291 108.588 48.7103 108.254 48.7103ZM114.108 51.6332C114.097 51.6465 114.07 51.6865 114.028 51.7533C113.985 51.82 113.934 51.8787 113.875 51.9294C113.697 52.0896 113.523 52.199 113.355 52.2578C113.189 52.3165 112.995 52.3458 112.77 52.3458C112.124 52.3458 111.689 52.1136 111.465 51.6492C111.34 51.3929 111.277 51.0152 111.277 50.5161V47.8855H112.446V50.5161C112.446 50.7643 112.475 50.9512 112.534 51.0766C112.638 51.2982 112.842 51.4089 113.147 51.4089C113.536 51.4089 113.803 51.2514 113.947 50.9365C114.022 50.7656 114.06 50.5401 114.06 50.2598V47.8855H115.217V52.2498H114.108V51.6332ZM116.346 46.348H117.487V52.2498H116.346V46.348ZM122.576 46.356V52.2498H121.467V51.6452C121.304 51.9041 121.118 52.0923 120.91 52.2097C120.702 52.3272 120.443 52.3859 120.133 52.3859C119.624 52.3859 119.194 52.1804 118.844 51.7693C118.497 51.3556 118.324 50.8257 118.324 50.1797C118.324 49.435 118.495 48.8491 118.836 48.422C119.181 47.9949 119.64 47.7814 120.214 47.7814C120.478 47.7814 120.713 47.8401 120.918 47.9576C121.124 48.0723 121.291 48.2325 121.419 48.438V46.356H122.576ZM119.501 50.0957C119.501 50.4987 119.581 50.8204 119.741 51.0606C119.899 51.3035 120.139 51.425 120.462 51.425C120.785 51.425 121.03 51.3048 121.199 51.0646C121.367 50.8244 121.451 50.5134 121.451 50.1317C121.451 49.5978 121.316 49.2161 121.046 48.9866C120.881 48.8478 120.689 48.7784 120.47 48.7784C120.136 48.7784 119.891 48.9052 119.733 49.1587C119.578 49.4097 119.501 49.722 119.501 50.0957ZM129.21 52.2498L128.526 49.0707L127.833 52.2498H126.648L125.423 47.8855H126.648L127.329 51.0166L127.957 47.8855H129.114L129.779 51.0286L130.46 47.8855H131.649L130.383 52.2498H129.21ZM136.017 50.9685C135.988 51.2274 135.853 51.4903 135.613 51.7573C135.239 52.1817 134.716 52.3939 134.043 52.3939C133.488 52.3939 132.998 52.2151 132.574 51.8574C132.149 51.4997 131.937 50.9178 131.937 50.1117C131.937 49.3563 132.128 48.777 132.51 48.374C132.894 47.9709 133.392 47.7694 134.003 47.7694C134.366 47.7694 134.693 47.8375 134.984 47.9736C135.275 48.1097 135.515 48.3246 135.705 48.6182C135.876 48.8771 135.986 49.1774 136.037 49.5191C136.066 49.7193 136.078 50.0076 136.073 50.3839H133.086C133.102 50.8217 133.24 51.1287 133.499 51.3048C133.656 51.4143 133.846 51.469 134.067 51.469C134.302 51.469 134.493 51.4023 134.64 51.2688C134.72 51.1967 134.79 51.0966 134.852 50.9685H136.017ZM134.888 49.6312C134.869 49.3296 134.777 49.1014 134.612 48.9465C134.449 48.789 134.246 48.7103 134.003 48.7103C133.739 48.7103 133.533 48.7931 133.386 48.9585C133.242 49.124 133.152 49.3483 133.114 49.6312H134.888ZM143.1 46.356V52.2498H141.991V51.6452C141.828 51.9041 141.642 52.0923 141.434 52.2097C141.226 52.3272 140.967 52.3859 140.658 52.3859C140.148 52.3859 139.718 52.1804 139.368 51.7693C139.021 51.3556 138.848 50.8257 138.848 50.1797C138.848 49.435 139.019 48.8491 139.36 48.422C139.705 47.9949 140.164 47.7814 140.738 47.7814C141.002 47.7814 141.237 47.8401 141.442 47.9576C141.648 48.0723 141.815 48.2325 141.943 48.438V46.356H143.1ZM140.025 50.0957C140.025 50.4987 140.105 50.8204 140.265 51.0606C140.423 51.3035 140.663 51.425 140.986 51.425C141.309 51.425 141.554 51.3048 141.723 51.0646C141.891 50.8244 141.975 50.5134 141.975 50.1317C141.975 49.5978 141.84 49.2161 141.57 48.9866C141.405 48.8478 141.213 48.7784 140.994 48.7784C140.66 48.7784 140.415 48.9052 140.257 49.1587C140.102 49.4097 140.025 49.722 140.025 50.0957ZM147.78 48.438C148.149 48.8998 148.333 49.4457 148.333 50.0756C148.333 50.7163 148.149 51.2648 147.78 51.7212C147.412 52.175 146.853 52.4019 146.103 52.4019C145.353 52.4019 144.794 52.175 144.425 51.7212C144.057 51.2648 143.873 50.7163 143.873 50.0756C143.873 49.4457 144.057 48.8998 144.425 48.438C144.794 47.9763 145.353 47.7454 146.103 47.7454C146.853 47.7454 147.412 47.9763 147.78 48.438ZM146.099 48.7103C145.765 48.7103 145.508 48.8291 145.326 49.0667C145.147 49.3015 145.058 49.6379 145.058 50.0756C145.058 50.5134 145.147 50.8511 145.326 51.0886C145.508 51.3262 145.765 51.445 146.099 51.445C146.432 51.445 146.689 51.3262 146.868 51.0886C147.046 50.8511 147.136 50.5134 147.136 50.0756C147.136 49.6379 147.046 49.3015 146.868 49.0667C146.689 48.8291 146.432 48.7103 146.099 48.7103ZM153.434 51.437V52.2898L152.893 52.3098C152.354 52.3285 151.986 52.2351 151.788 52.0295C151.66 51.8987 151.596 51.6972 151.596 51.425V48.7383H150.988V47.9255H151.596V46.7083H152.725V47.9255H153.434V48.7383H152.725V51.0446C152.725 51.2234 152.748 51.3355 152.793 51.3809C152.839 51.4236 152.978 51.445 153.21 51.445C153.244 51.445 153.28 51.445 153.318 51.445C153.358 51.4423 153.397 51.4396 153.434 51.437ZM157.806 48.438C158.175 48.8998 158.359 49.4457 158.359 50.0756C158.359 50.7163 158.175 51.2648 157.806 51.7212C157.438 52.175 156.879 52.4019 156.129 52.4019C155.379 52.4019 154.819 52.175 154.451 51.7212C154.083 51.2648 153.898 50.7163 153.898 50.0756C153.898 49.4457 154.083 48.8998 154.451 48.438C154.819 47.9763 155.379 47.7454 156.129 47.7454C156.879 47.7454 157.438 47.9763 157.806 48.438ZM156.125 48.7103C155.791 48.7103 155.533 48.8291 155.352 49.0667C155.173 49.3015 155.084 49.6379 155.084 50.0756C155.084 50.5134 155.173 50.8511 155.352 51.0886C155.533 51.3262 155.791 51.445 156.125 51.445C156.458 51.445 156.715 51.3262 156.893 51.0886C157.072 50.8511 157.162 50.5134 157.162 50.0756C157.162 49.6379 157.072 49.3015 156.893 49.0667C156.715 48.8291 156.458 48.7103 156.125 48.7103ZM163.912 49.0867C163.816 48.8758 163.628 48.7704 163.348 48.7704C163.022 48.7704 162.803 48.8758 162.691 49.0867C162.63 49.2068 162.599 49.3856 162.599 49.6232V52.2498H161.442V47.8935H162.551V48.5301C162.692 48.3032 162.826 48.1417 162.951 48.0457C163.173 47.8748 163.46 47.7894 163.812 47.7894C164.146 47.7894 164.415 47.8628 164.621 48.0096C164.786 48.1458 164.912 48.3206 164.997 48.5341C165.147 48.2779 165.332 48.0897 165.554 47.9696C165.789 47.8495 166.05 47.7894 166.339 47.7894C166.531 47.7894 166.72 47.8268 166.907 47.9015C167.094 47.9763 167.263 48.107 167.416 48.2939C167.538 48.446 167.621 48.6329 167.664 48.8544C167.691 49.0013 167.704 49.2161 167.704 49.4991L167.696 52.2498H166.527V49.471C166.527 49.3056 166.5 49.1694 166.447 49.0626C166.345 48.8598 166.158 48.7583 165.886 48.7583C165.571 48.7583 165.354 48.8891 165.233 49.1507C165.172 49.2895 165.141 49.4564 165.141 49.6512V52.2498H163.992V49.6512C163.992 49.3923 163.966 49.2041 163.912 49.0867ZM168.921 48.358C169.223 47.9736 169.741 47.7814 170.475 47.7814C170.952 47.7814 171.377 47.8762 171.748 48.0657C172.119 48.2552 172.304 48.6129 172.304 49.1387V51.1407C172.304 51.2795 172.307 51.4476 172.312 51.6452C172.32 51.7946 172.343 51.8961 172.38 51.9495C172.418 52.0028 172.474 52.0469 172.549 52.0816V52.2498H171.307C171.273 52.1617 171.249 52.0789 171.235 52.0015C171.222 51.9241 171.211 51.836 171.203 51.7373C171.046 51.9081 170.864 52.0536 170.659 52.1737C170.413 52.3152 170.136 52.3859 169.826 52.3859C169.431 52.3859 169.104 52.2738 168.845 52.0496C168.589 51.8227 168.461 51.5024 168.461 51.0886C168.461 50.5521 168.668 50.1637 169.081 49.9235C169.308 49.7927 169.642 49.6993 170.082 49.6432L170.471 49.5952C170.681 49.5685 170.832 49.5351 170.923 49.4951C171.086 49.4257 171.167 49.3176 171.167 49.1708C171.167 48.9919 171.105 48.8691 170.979 48.8024C170.856 48.733 170.675 48.6983 170.435 48.6983C170.165 48.6983 169.974 48.765 169.862 48.8985C169.782 48.9972 169.729 49.1307 169.702 49.2989H168.601C168.625 48.9172 168.732 48.6035 168.921 48.358ZM169.77 51.425C169.877 51.513 170.007 51.5571 170.162 51.5571C170.408 51.5571 170.633 51.485 170.839 51.3409C171.047 51.1967 171.155 50.9338 171.163 50.5521V50.1277C171.091 50.1731 171.018 50.2104 170.943 50.2398C170.871 50.2665 170.771 50.2918 170.643 50.3159L170.387 50.3639C170.146 50.4066 169.974 50.4587 169.87 50.5201C169.694 50.6242 169.606 50.7857 169.606 51.0045C169.606 51.1994 169.66 51.3395 169.77 51.425ZM177.325 52.2498H175.948L174.903 50.3839L174.43 50.8764V52.2498H173.309V46.368H174.43V49.5471L175.852 47.9055H177.265L175.74 49.5751L177.325 52.2498ZM181.621 50.9685C181.592 51.2274 181.457 51.4903 181.217 51.7573C180.843 52.1817 180.32 52.3939 179.648 52.3939C179.092 52.3939 178.603 52.2151 178.178 51.8574C177.754 51.4997 177.542 50.9178 177.542 50.1117C177.542 49.3563 177.732 48.777 178.114 48.374C178.498 47.9709 178.996 47.7694 179.608 47.7694C179.971 47.7694 180.298 47.8375 180.588 47.9736C180.879 48.1097 181.12 48.3246 181.309 48.6182C181.48 48.8771 181.591 49.1774 181.642 49.5191C181.671 49.7193 181.683 50.0076 181.678 50.3839H178.691C178.707 50.8217 178.844 51.1287 179.103 51.3048C179.261 51.4143 179.45 51.469 179.672 51.469C179.906 51.469 180.097 51.4023 180.244 51.2688C180.324 51.1967 180.395 51.0966 180.456 50.9685H181.621ZM180.492 49.6312C180.474 49.3296 180.382 49.1014 180.216 48.9465C180.053 48.789 179.85 48.7103 179.608 48.7103C179.343 48.7103 179.138 48.7931 178.991 48.9585C178.847 49.124 178.756 49.3483 178.719 49.6312H180.492ZM186.506 51.1046L187.407 47.8855H188.62L187.123 52.1777C186.835 53.0052 186.606 53.5177 186.438 53.7152C186.27 53.9154 185.934 54.0155 185.429 54.0155C185.328 54.0155 185.246 54.0141 185.185 54.0115C185.124 54.0115 185.031 54.0075 184.909 53.9995V53.0866L185.053 53.0946C185.165 53.0999 185.272 53.0959 185.373 53.0826C185.475 53.0692 185.56 53.0385 185.629 52.9905C185.696 52.9451 185.758 52.8503 185.814 52.7062C185.872 52.5621 185.896 52.474 185.886 52.4419L184.284 47.8855H185.553L186.506 51.1046ZM192.937 48.438C193.305 48.8998 193.489 49.4457 193.489 50.0756C193.489 50.7163 193.305 51.2648 192.937 51.7212C192.568 52.175 192.009 52.4019 191.259 52.4019C190.509 52.4019 189.95 52.175 189.581 51.7212C189.213 51.2648 189.029 50.7163 189.029 50.0756C189.029 49.4457 189.213 48.8998 189.581 48.438C189.95 47.9763 190.509 47.7454 191.259 47.7454C192.009 47.7454 192.568 47.9763 192.937 48.438ZM191.255 48.7103C190.921 48.7103 190.664 48.8291 190.482 49.0667C190.303 49.3015 190.214 49.6379 190.214 50.0756C190.214 50.5134 190.303 50.8511 190.482 51.0886C190.664 51.3262 190.921 51.445 191.255 51.445C191.589 51.445 191.845 51.3262 192.024 51.0886C192.202 50.8511 192.292 50.5134 192.292 50.0756C192.292 49.6379 192.202 49.3015 192.024 49.0667C191.845 48.8291 191.589 48.7103 191.255 48.7103ZM197.109 51.6332C197.098 51.6465 197.071 51.6865 197.029 51.7533C196.986 51.82 196.935 51.8787 196.876 51.9294C196.698 52.0896 196.524 52.199 196.356 52.2578C196.19 52.3165 195.996 52.3458 195.771 52.3458C195.125 52.3458 194.69 52.1136 194.466 51.6492C194.341 51.3929 194.278 51.0152 194.278 50.5161V47.8855H195.447V50.5161C195.447 50.7643 195.476 50.9512 195.535 51.0766C195.639 51.2982 195.843 51.4089 196.148 51.4089C196.537 51.4089 196.804 51.2514 196.948 50.9365C197.023 50.7656 197.061 50.5401 197.061 50.2598V47.8855H198.218V52.2498H197.109V51.6332ZM205.549 49.6873V52.2498H204.384V49.5952C204.384 49.3603 204.344 49.1708 204.264 49.0266C204.159 48.8237 203.962 48.7223 203.671 48.7223C203.369 48.7223 203.14 48.8237 202.982 49.0266C202.828 49.2268 202.75 49.5138 202.75 49.8875V52.2498H201.613V46.368H202.75V48.4541C202.916 48.2005 203.106 48.0243 203.323 47.9255C203.542 47.8241 203.771 47.7734 204.011 47.7734C204.281 47.7734 204.525 47.8201 204.744 47.9135C204.966 48.0069 205.147 48.1498 205.289 48.3419C205.409 48.5048 205.482 48.6729 205.509 48.8464C205.535 49.0173 205.549 49.2975 205.549 49.6873ZM206.782 48.358C207.084 47.9736 207.601 47.7814 208.336 47.7814C208.813 47.7814 209.238 47.8762 209.609 48.0657C209.98 48.2552 210.165 48.6129 210.165 49.1387V51.1407C210.165 51.2795 210.168 51.4476 210.173 51.6452C210.181 51.7946 210.204 51.8961 210.241 51.9495C210.279 52.0028 210.335 52.0469 210.41 52.0816V52.2498H209.168C209.134 52.1617 209.11 52.0789 209.096 52.0015C209.083 51.9241 209.072 51.836 209.064 51.7373C208.907 51.9081 208.725 52.0536 208.52 52.1737C208.274 52.3152 207.997 52.3859 207.687 52.3859C207.292 52.3859 206.965 52.2738 206.706 52.0496C206.45 51.8227 206.322 51.5024 206.322 51.0886C206.322 50.5521 206.528 50.1637 206.942 49.9235C207.169 49.7927 207.503 49.6993 207.943 49.6432L208.332 49.5952C208.542 49.5685 208.693 49.5351 208.784 49.4951C208.947 49.4257 209.028 49.3176 209.028 49.1708C209.028 48.9919 208.965 48.8691 208.84 48.8024C208.717 48.733 208.536 48.6983 208.296 48.6983C208.026 48.6983 207.835 48.765 207.723 48.8985C207.643 48.9972 207.589 49.1307 207.563 49.2989H206.462C206.486 48.9172 206.593 48.6035 206.782 48.358ZM207.631 51.425C207.738 51.513 207.868 51.5571 208.023 51.5571C208.269 51.5571 208.494 51.485 208.7 51.3409C208.908 51.1967 209.016 50.9338 209.024 50.5521V50.1277C208.952 50.1731 208.879 50.2104 208.804 50.2398C208.732 50.2665 208.632 50.2918 208.504 50.3159L208.247 50.3639C208.007 50.4066 207.835 50.4587 207.731 50.5201C207.555 50.6242 207.467 50.7857 207.467 51.0045C207.467 51.1994 207.521 51.3395 207.631 51.425ZM214.838 48.354C215.19 48.7303 215.366 49.2829 215.366 50.0116C215.366 50.7803 215.193 51.3662 214.846 51.7693C214.502 52.1723 214.057 52.3739 213.513 52.3739C213.166 52.3739 212.877 52.2871 212.648 52.1136C212.522 52.0175 212.4 51.8774 212.279 51.6932V53.9674H211.15V47.8855H212.243V48.5301C212.366 48.3406 212.497 48.1911 212.636 48.0817C212.889 47.8868 213.191 47.7894 213.541 47.7894C214.05 47.7894 214.483 47.9776 214.838 48.354ZM214.189 50.0676C214.189 49.7313 214.112 49.4337 213.957 49.1748C213.805 48.9158 213.557 48.7864 213.212 48.7864C212.799 48.7864 212.514 48.9826 212.359 49.375C212.279 49.5832 212.239 49.8474 212.239 50.1677C212.239 50.6749 212.374 51.0312 212.644 51.2368C212.804 51.3569 212.993 51.4169 213.212 51.4169C213.53 51.4169 213.772 51.2942 213.937 51.0486C214.105 50.803 214.189 50.476 214.189 50.0676ZM219.851 48.354C220.203 48.7303 220.379 49.2829 220.379 50.0116C220.379 50.7803 220.206 51.3662 219.859 51.7693C219.514 52.1723 219.07 52.3739 218.525 52.3739C218.178 52.3739 217.89 52.2871 217.661 52.1136C217.535 52.0175 217.412 51.8774 217.292 51.6932V53.9674H216.163V47.8855H217.256V48.5301C217.379 48.3406 217.51 48.1911 217.649 48.0817C217.902 47.8868 218.204 47.7894 218.554 47.7894C219.063 47.7894 219.496 47.9776 219.851 48.354ZM219.202 50.0676C219.202 49.7313 219.125 49.4337 218.97 49.1748C218.818 48.9158 218.57 48.7864 218.225 48.7864C217.811 48.7864 217.527 48.9826 217.372 49.375C217.292 49.5832 217.252 49.8474 217.252 50.1677C217.252 50.6749 217.387 51.0312 217.657 51.2368C217.817 51.3569 218.006 51.4169 218.225 51.4169C218.543 51.4169 218.784 51.2942 218.95 51.0486C219.118 50.803 219.202 50.476 219.202 50.0676ZM222.381 47.8855V52.2498H221.224V47.8855H222.381ZM222.381 46.312V47.365H221.224V46.312H222.381ZM227.226 50.9685C227.197 51.2274 227.062 51.4903 226.822 51.7573C226.448 52.1817 225.925 52.3939 225.252 52.3939C224.697 52.3939 224.207 52.2151 223.783 51.8574C223.358 51.4997 223.146 50.9178 223.146 50.1117C223.146 49.3563 223.337 48.777 223.719 48.374C224.103 47.9709 224.601 47.7694 225.212 47.7694C225.575 47.7694 225.902 47.8375 226.193 47.9736C226.484 48.1097 226.724 48.3246 226.914 48.6182C227.085 48.8771 227.195 49.1774 227.246 49.5191C227.275 49.7193 227.287 50.0076 227.282 50.3839H224.295C224.311 50.8217 224.449 51.1287 224.708 51.3048C224.865 51.4143 225.055 51.469 225.276 51.469C225.511 51.469 225.702 51.4023 225.849 51.2688C225.929 51.1967 225.999 51.0966 226.061 50.9685H227.226ZM226.097 49.6312C226.078 49.3296 225.986 49.1014 225.821 48.9465C225.658 48.789 225.455 48.7103 225.212 48.7103C224.948 48.7103 224.742 48.7931 224.595 48.9585C224.451 49.124 224.361 49.3483 224.323 49.6312H226.097ZM230.249 48.9385C229.79 48.9385 229.482 49.088 229.324 49.387C229.236 49.5551 229.192 49.814 229.192 50.1637V52.2498H228.043V47.8855H229.132V48.6462C229.308 48.3553 229.461 48.1564 229.592 48.0497C229.806 47.8708 230.083 47.7814 230.425 47.7814C230.446 47.7814 230.464 47.7827 230.477 47.7854C230.493 47.7854 230.527 47.7867 230.577 47.7894V48.9585C230.505 48.9505 230.441 48.9452 230.385 48.9425C230.329 48.9399 230.284 48.9385 230.249 48.9385ZM233.832 50.0716C233.8 50.1731 233.783 50.3306 233.78 50.5441H232.699C232.715 50.093 232.758 49.782 232.827 49.6112C232.897 49.4377 233.076 49.2388 233.364 49.0146L233.656 48.7864C233.752 48.7143 233.83 48.6356 233.888 48.5501C233.995 48.4033 234.049 48.2418 234.049 48.0657C234.049 47.8628 233.989 47.6786 233.868 47.5131C233.751 47.345 233.535 47.2609 233.22 47.2609C232.91 47.2609 232.69 47.3637 232.559 47.5692C232.431 47.7747 232.367 47.9883 232.367 48.2098H231.21C231.242 47.4491 231.507 46.9099 232.007 46.5922C232.322 46.3894 232.709 46.2879 233.168 46.2879C233.771 46.2879 234.272 46.4321 234.669 46.7204C235.07 47.0086 235.27 47.4357 235.27 48.0016C235.27 48.3486 235.183 48.6409 235.01 48.8785C234.908 49.0226 234.713 49.2068 234.425 49.431L234.141 49.6512C233.986 49.7713 233.883 49.9115 233.832 50.0716ZM233.864 52.2498H232.671V51.0926H233.864V52.2498Z" fill="#23282D"/>
<rect x="64.4739" y="69.0537" width="189.587" height="137.482" fill="#AFC6E1"/>
<rect x="64.4739" y="69.0537" width="189.587" height="137.482" stroke="#CFDBE8" stroke-width="0.58741"/>
<g clip-path="url(#clip2_227_756)">
<rect x="81.0613" y="83.739" width="156.413" height="92.4126" rx="1.46852" fill="white" stroke="#CFDBE8" stroke-width="0.58741"/>
</g>
</g>
<rect x="89.4258" y="94.1797" width="129.996" height="4.19641" rx="2.0982" fill="#B3C7DE"/>
<rect x="89.4258" y="104.84" width="121.445" height="4.19641" rx="2.0982" fill="#B3C7DE"/>
<g filter="url(#filter1_d_227_756)">
<rect x="38" y="108.691" width="178.535" height="35.819" rx="4" fill="white"/>
<g clip-path="url(#clip3_227_756)">
<path fill-rule="evenodd" clip-rule="evenodd" d="M61.2261 121.004H52.8313C52.0586 121.004 51.4321 121.631 51.4321 122.403V129.041C51.4321 129.649 51.9247 130.141 52.5323 130.141H52.6052C53.1725 130.141 53.6324 130.601 53.6324 131.168C53.6324 132.069 54.7089 132.534 55.3642 131.916L56.843 130.522C57.1026 130.277 57.4459 130.141 57.8027 130.141H61.2261C61.9988 130.141 62.6253 129.515 62.6253 128.742V122.403C62.6253 121.631 61.9988 121.004 61.2261 121.004ZM56.0957 123.112C56.0957 122.803 56.3463 122.553 56.6554 122.553H57.4016C57.7107 122.553 57.9612 122.803 57.9612 123.112V127.568C57.9612 127.877 57.7107 128.128 57.4016 128.128H56.6554C56.3463 128.128 56.0957 127.877 56.0957 127.568V123.112ZM53.6084 124.971C53.6084 124.662 53.8589 124.411 54.168 124.411H54.9142C55.2233 124.411 55.4739 124.662 55.4739 124.971V127.568C55.4739 127.877 55.2233 128.128 54.9142 128.128H54.168C53.8589 128.128 53.6084 127.877 53.6084 127.568V124.971ZM59.1429 125.65C58.8338 125.65 58.5832 125.9 58.5832 126.209V127.568C58.5832 127.877 58.8338 128.128 59.1429 128.128H59.8891C60.1982 128.128 60.4487 127.877 60.4487 127.568V126.209C60.4487 125.9 60.1982 125.65 59.8891 125.65H59.1429Z" fill="#AAAAAA"/>
<path fill-rule="evenodd" clip-rule="evenodd" d="M93.7274 123.333C93.6717 123.273 93.599 123.243 93.5091 123.243C93.4192 123.243 93.3464 123.273 93.2908 123.333C93.2351 123.388 93.2073 123.461 93.2073 123.551V125.06C93.0875 124.91 92.9313 124.788 92.7386 124.694C92.546 124.6 92.3363 124.553 92.1094 124.553C91.827 124.553 91.568 124.627 91.3326 124.777C91.0972 124.927 90.911 125.137 90.774 125.406C90.6413 125.672 90.575 125.971 90.575 126.305C90.575 126.639 90.6435 126.941 90.7804 127.211C90.9174 127.476 91.1036 127.684 91.339 127.833C91.5744 127.983 91.8376 128.058 92.1287 128.058C92.3513 128.058 92.5589 128.005 92.7515 127.898C92.9484 127.791 93.1003 127.66 93.2073 127.506V127.686C93.2073 127.776 93.2351 127.851 93.2908 127.91C93.3464 127.966 93.4192 127.994 93.5091 127.994C93.599 127.994 93.6717 127.964 93.7274 127.904C93.7873 127.844 93.8173 127.771 93.8173 127.686V123.551C93.8173 123.461 93.7873 123.388 93.7274 123.333ZM92.7322 127.339C92.5781 127.442 92.4005 127.493 92.1993 127.493C91.9982 127.493 91.8184 127.442 91.66 127.339C91.5059 127.236 91.3839 127.095 91.2941 126.915C91.2085 126.736 91.1657 126.532 91.1657 126.305C91.1657 126.083 91.2085 125.882 91.2941 125.702C91.3839 125.518 91.5059 125.374 91.66 125.272C91.8184 125.169 91.9982 125.118 92.1993 125.118C92.4005 125.118 92.5781 125.169 92.7322 125.272C92.8906 125.374 93.0126 125.518 93.0982 125.702C93.1881 125.882 93.233 126.083 93.233 126.305C93.233 126.532 93.1881 126.736 93.0982 126.915C93.0126 127.095 92.8906 127.236 92.7322 127.339Z" fill="#AAAAAA"/>
<path d="M68.8203 123.583C68.7689 123.523 68.6983 123.493 68.6084 123.493C68.5185 123.493 68.4479 123.523 68.3965 123.583C68.3452 123.639 68.3195 123.712 68.3195 123.801V126.267C68.3195 126.489 68.266 126.691 68.159 126.87C68.0563 127.046 67.9171 127.183 67.7417 127.281C67.5662 127.38 67.3757 127.429 67.1702 127.429C66.9734 127.429 66.7893 127.38 66.6181 127.281C66.4469 127.183 66.3099 127.046 66.2072 126.87C66.1045 126.691 66.0531 126.489 66.0531 126.267V123.801C66.0531 123.716 66.021 123.643 65.9568 123.583C65.8969 123.523 65.8263 123.493 65.7449 123.493C65.6508 123.493 65.5737 123.523 65.5138 123.583C65.4539 123.639 65.4239 123.712 65.4239 123.801V126.267C65.4239 126.605 65.4988 126.909 65.6486 127.179C65.7984 127.448 66.006 127.66 66.2714 127.814C66.5368 127.964 66.8364 128.039 67.1702 128.039C67.4998 128.039 67.7952 127.964 68.0563 127.814C68.3216 127.66 68.5292 127.448 68.679 127.179C68.8288 126.909 68.9037 126.605 68.9037 126.267V123.801C68.9037 123.712 68.8759 123.639 68.8203 123.583Z" fill="#AAAAAA"/>
<path d="M69.6421 127.294C69.6421 127.35 69.6614 127.408 69.6999 127.467C69.8583 127.673 70.0509 127.823 70.2777 127.917C70.5089 128.011 70.7593 128.058 71.0289 128.058C71.2387 128.058 71.4356 128.02 71.6196 127.943C71.8079 127.861 71.9599 127.748 72.0754 127.602C72.191 127.452 72.2488 127.277 72.2488 127.076C72.2488 126.857 72.1974 126.682 72.0947 126.549C71.992 126.412 71.8657 126.31 71.7159 126.241C71.5661 126.173 71.3778 126.108 71.1509 126.049C70.8898 125.98 70.6951 125.909 70.5667 125.837C70.4425 125.764 70.3783 125.653 70.3741 125.503C70.3741 125.344 70.4297 125.233 70.541 125.169C70.6565 125.1 70.7957 125.066 70.9583 125.066C71.1167 125.066 71.2601 125.094 71.3885 125.15C71.5212 125.205 71.6324 125.285 71.7223 125.387C71.7694 125.439 71.8315 125.464 71.9085 125.464C71.9727 125.464 72.0262 125.445 72.069 125.406C72.1375 125.342 72.1717 125.276 72.1717 125.207C72.1717 125.143 72.1461 125.081 72.0947 125.021C71.9663 124.863 71.7994 124.745 71.5939 124.668C71.3927 124.591 71.1894 124.553 70.984 124.553C70.77 124.553 70.5709 124.593 70.3869 124.675C70.2071 124.756 70.0616 124.869 69.9503 125.015C69.8433 125.16 69.7898 125.329 69.7898 125.522C69.7898 125.74 69.8433 125.918 69.9503 126.055C70.0616 126.188 70.1964 126.29 70.3548 126.363C70.5132 126.432 70.7122 126.498 70.9519 126.562C71.1959 126.626 71.3799 126.697 71.504 126.774C71.6324 126.851 71.6966 126.962 71.6966 127.108C71.6966 127.266 71.6346 127.382 71.5105 127.455C71.3863 127.523 71.2429 127.559 71.0803 127.564C70.8748 127.564 70.6972 127.527 70.5474 127.455C70.4019 127.382 70.2649 127.273 70.1365 127.127C70.0723 127.063 70.0017 127.031 69.9246 127.031C69.869 127.031 69.8198 127.046 69.777 127.076C69.6871 127.136 69.6421 127.208 69.6421 127.294Z" fill="#AAAAAA"/>
<path fill-rule="evenodd" clip-rule="evenodd" d="M75.9056 126.183C75.9013 126.26 75.8692 126.327 75.8093 126.382C75.7494 126.434 75.6787 126.459 75.5974 126.459H73.3374C73.3674 126.772 73.4851 127.022 73.6906 127.211C73.9003 127.399 74.155 127.493 74.4546 127.493C74.66 127.493 74.827 127.463 74.9554 127.403C75.0838 127.343 75.1972 127.266 75.2957 127.172C75.3599 127.134 75.4219 127.114 75.4818 127.114C75.5546 127.114 75.6145 127.14 75.6616 127.191C75.713 127.243 75.7387 127.303 75.7387 127.371C75.7387 127.461 75.6959 127.542 75.6102 127.615C75.4861 127.739 75.3213 127.844 75.1159 127.93C74.9104 128.015 74.7007 128.058 74.4867 128.058C74.14 128.058 73.834 127.985 73.5686 127.84C73.3075 127.694 73.1042 127.491 72.9586 127.23C72.8174 126.969 72.7468 126.673 72.7468 126.344C72.7468 125.984 72.8195 125.67 72.9651 125.4C73.1149 125.126 73.3096 124.916 73.5493 124.771C73.7933 124.625 74.0544 124.553 74.3326 124.553C74.6065 124.553 74.8633 124.623 75.103 124.764C75.3427 124.906 75.5353 125.1 75.6809 125.349C75.8264 125.597 75.9013 125.875 75.9056 126.183ZM74.3326 125.118C74.0929 125.118 73.8853 125.186 73.7098 125.323C73.5343 125.456 73.4188 125.663 73.3631 125.946H75.2571V125.894C75.2357 125.668 75.133 125.481 74.949 125.336C74.7692 125.19 74.5637 125.118 74.3326 125.118Z" fill="#AAAAAA"/>
<path d="M78.5785 124.642C78.4971 124.583 78.4008 124.553 78.2895 124.553C78.0498 124.557 77.8358 124.625 77.6475 124.758C77.4592 124.886 77.3179 125.056 77.2238 125.265V124.938C77.2238 124.852 77.1938 124.779 77.1339 124.72C77.0782 124.66 77.0055 124.63 76.9156 124.63C76.83 124.63 76.7572 124.66 76.6973 124.72C76.6417 124.779 76.6138 124.852 76.6138 124.938V127.686C76.6138 127.776 76.6417 127.851 76.6973 127.91C76.7529 127.966 76.8257 127.994 76.9156 127.994C77.0055 127.994 77.0782 127.964 77.1339 127.904C77.1938 127.844 77.2238 127.771 77.2238 127.686V126.138C77.2238 125.942 77.2623 125.764 77.3393 125.606C77.4207 125.443 77.5234 125.317 77.6475 125.227C77.7759 125.133 77.9065 125.085 78.0391 125.085C78.0905 125.085 78.1611 125.1 78.251 125.13C78.3281 125.156 78.3858 125.169 78.4244 125.169C78.5014 125.169 78.5656 125.143 78.617 125.092C78.6726 125.036 78.7004 124.957 78.7004 124.854C78.7004 124.769 78.6598 124.698 78.5785 124.642Z" fill="#AAAAAA"/>
<path d="M80.6335 124.09V125.419H82.2129C82.3028 125.419 82.3756 125.447 82.4312 125.503C82.4911 125.558 82.5211 125.631 82.5211 125.721C82.5211 125.798 82.4911 125.864 82.4312 125.92C82.3756 125.976 82.3028 126.004 82.2129 126.004H80.6335V127.686C80.6335 127.771 80.6014 127.844 80.5372 127.904C80.4773 127.964 80.4045 127.994 80.3189 127.994C80.229 127.994 80.1541 127.964 80.0942 127.904C80.0343 127.844 80.0043 127.771 80.0043 127.686V123.808C80.0043 123.722 80.0343 123.649 80.0942 123.59C80.1541 123.53 80.2269 123.5 80.3125 123.5H82.5018C82.5917 123.5 82.6645 123.527 82.7201 123.583C82.7801 123.639 82.81 123.712 82.81 123.801C82.81 123.878 82.7801 123.947 82.7201 124.007C82.6602 124.062 82.5875 124.09 82.5018 124.09H80.6335Z" fill="#AAAAAA"/>
<path fill-rule="evenodd" clip-rule="evenodd" d="M86.3143 126.382C86.3742 126.327 86.4063 126.26 86.4106 126.183C86.4063 125.875 86.3314 125.597 86.1859 125.349C86.0403 125.1 85.8477 124.906 85.608 124.764C85.3683 124.623 85.1115 124.553 84.8376 124.553C84.5594 124.553 84.2983 124.625 84.0543 124.771C83.8146 124.916 83.6199 125.126 83.4701 125.4C83.3245 125.67 83.2518 125.984 83.2518 126.344C83.2518 126.673 83.3224 126.969 83.4636 127.23C83.6092 127.491 83.8125 127.694 84.0736 127.84C84.339 127.985 84.645 128.058 84.9917 128.058C85.2057 128.058 85.4154 128.015 85.6209 127.93C85.8263 127.844 85.9911 127.739 86.1152 127.615C86.2009 127.542 86.2437 127.461 86.2437 127.371C86.2437 127.303 86.218 127.243 86.1666 127.191C86.1195 127.14 86.0596 127.114 85.9868 127.114C85.9269 127.114 85.8649 127.134 85.8006 127.172C85.7022 127.266 85.5888 127.343 85.4604 127.403C85.332 127.463 85.165 127.493 84.9596 127.493C84.66 127.493 84.4053 127.399 84.1956 127.211C83.9901 127.022 83.8724 126.772 83.8424 126.459H86.1024C86.1837 126.459 86.2544 126.434 86.3143 126.382ZM84.2148 125.323C84.3903 125.186 84.5979 125.118 84.8376 125.118C85.0687 125.118 85.2742 125.19 85.454 125.336C85.638 125.481 85.7407 125.668 85.7621 125.894V125.946H83.8681C83.9238 125.663 84.0393 125.456 84.2148 125.323Z" fill="#AAAAAA"/>
<path fill-rule="evenodd" clip-rule="evenodd" d="M90.0722 126.183C90.0679 126.26 90.0358 126.327 89.9759 126.382C89.916 126.434 89.8453 126.459 89.764 126.459H87.504C87.534 126.772 87.6517 127.022 87.8572 127.211C88.0669 127.399 88.3216 127.493 88.6212 127.493C88.8266 127.493 88.9936 127.463 89.122 127.403C89.2504 127.343 89.3638 127.266 89.4623 127.172C89.5265 127.134 89.5885 127.114 89.6484 127.114C89.7212 127.114 89.7811 127.14 89.8282 127.191C89.8796 127.243 89.9053 127.303 89.9053 127.371C89.9053 127.461 89.8625 127.542 89.7769 127.615C89.6527 127.739 89.4879 127.844 89.2825 127.93C89.077 128.015 88.8673 128.058 88.6533 128.058C88.3066 128.058 88.0006 127.985 87.7352 127.84C87.4741 127.694 87.2708 127.491 87.1252 127.23C86.984 126.969 86.9134 126.673 86.9134 126.344C86.9134 125.984 86.9861 125.67 87.1317 125.4C87.2815 125.126 87.4762 124.916 87.7159 124.771C87.9599 124.625 88.221 124.553 88.4992 124.553C88.7731 124.553 89.03 124.623 89.2696 124.764C89.5093 124.906 89.702 125.1 89.8475 125.349C89.993 125.597 90.0679 125.875 90.0722 126.183ZM88.4992 125.118C88.2595 125.118 88.0519 125.186 87.8764 125.323C87.7009 125.456 87.5854 125.663 87.5297 125.946H89.4237V125.894C89.4023 125.668 89.2996 125.481 89.1156 125.336C88.9358 125.19 88.7303 125.118 88.4992 125.118Z" fill="#AAAAAA"/>
<path fill-rule="evenodd" clip-rule="evenodd" d="M96.4127 124.553C96.7038 124.553 96.967 124.627 97.2024 124.777C97.4379 124.927 97.6219 125.135 97.7546 125.4C97.8916 125.665 97.96 125.965 97.96 126.299C97.96 126.633 97.8916 126.935 97.7546 127.204C97.6219 127.474 97.4379 127.684 97.2024 127.833C96.967 127.983 96.7081 128.058 96.4256 128.058C96.203 128.058 95.9954 128.009 95.8028 127.91C95.6102 127.812 95.454 127.69 95.3341 127.544V127.731C95.3341 127.816 95.3042 127.889 95.2442 127.949C95.1886 128.009 95.1158 128.039 95.0259 128.039C94.9403 128.039 94.8676 128.011 94.8076 127.955C94.752 127.895 94.7242 127.821 94.7242 127.731V123.551C94.7242 123.461 94.752 123.388 94.8076 123.333C94.8633 123.273 94.9361 123.243 95.0259 123.243C95.1158 123.243 95.1886 123.273 95.2442 123.333C95.3042 123.393 95.3341 123.465 95.3341 123.551V125.118C95.4368 124.963 95.5867 124.831 95.7835 124.72C95.9804 124.608 96.1902 124.553 96.4127 124.553ZM96.3421 127.493C96.539 127.493 96.7166 127.442 96.875 127.339C97.0334 127.232 97.1554 127.089 97.241 126.909C97.3308 126.725 97.3758 126.521 97.3758 126.299C97.3758 126.076 97.3308 125.875 97.241 125.695C97.1554 125.516 97.0334 125.374 96.875 125.272C96.7166 125.169 96.539 125.118 96.3421 125.118C96.1409 125.118 95.9612 125.169 95.8028 125.272C95.6444 125.374 95.5203 125.516 95.4304 125.695C95.3448 125.871 95.302 126.072 95.302 126.299C95.302 126.526 95.3448 126.729 95.4304 126.909C95.5203 127.089 95.6444 127.232 95.8028 127.339C95.9612 127.442 96.1409 127.493 96.3421 127.493Z" fill="#AAAAAA"/>
<path fill-rule="evenodd" clip-rule="evenodd" d="M101.615 124.675C101.559 124.615 101.486 124.585 101.397 124.585C101.307 124.585 101.234 124.615 101.178 124.675C101.123 124.734 101.095 124.809 101.095 124.899V125.053C100.979 124.908 100.823 124.788 100.626 124.694C100.434 124.6 100.224 124.553 99.9969 124.553C99.7144 124.553 99.4555 124.627 99.2201 124.777C98.9847 124.927 98.7985 125.137 98.6615 125.406C98.5288 125.672 98.4625 125.971 98.4625 126.305C98.4625 126.639 98.5288 126.941 98.6615 127.211C98.7985 127.476 98.9847 127.684 99.2201 127.833C99.4598 127.983 99.7251 128.058 100.016 128.058C100.239 128.058 100.446 128.007 100.639 127.904C100.832 127.797 100.984 127.669 101.095 127.519V127.686C101.095 127.776 101.123 127.851 101.178 127.91C101.234 127.966 101.307 127.994 101.397 127.994C101.486 127.994 101.559 127.964 101.615 127.904C101.675 127.844 101.705 127.771 101.705 127.686V124.899C101.705 124.805 101.675 124.73 101.615 124.675ZM100.62 127.339C100.466 127.442 100.288 127.493 100.087 127.493C99.8857 127.493 99.7059 127.442 99.5475 127.339C99.3934 127.236 99.2714 127.095 99.1816 126.915C99.096 126.736 99.0532 126.532 99.0532 126.305C99.0532 126.078 99.096 125.875 99.1816 125.695C99.2714 125.516 99.3934 125.374 99.5475 125.272C99.7059 125.169 99.8857 125.118 100.087 125.118C100.288 125.118 100.466 125.171 100.62 125.278C100.778 125.381 100.9 125.522 100.986 125.702C101.076 125.882 101.121 126.083 101.121 126.305C101.121 126.532 101.076 126.736 100.986 126.915C100.9 127.095 100.778 127.236 100.62 127.339Z" fill="#AAAAAA"/>
<path d="M104.076 124.553C104.414 124.553 104.694 124.606 104.917 124.713C105.143 124.82 105.257 124.957 105.257 125.124C105.257 125.197 105.233 125.263 105.186 125.323C105.139 125.379 105.079 125.406 105.006 125.406C104.951 125.406 104.906 125.398 104.872 125.381C104.842 125.364 104.799 125.336 104.743 125.297C104.718 125.272 104.677 125.242 104.621 125.207C104.57 125.182 104.497 125.16 104.403 125.143C104.309 125.126 104.223 125.118 104.146 125.118C103.924 125.118 103.727 125.169 103.555 125.272C103.384 125.374 103.252 125.518 103.157 125.702C103.063 125.882 103.016 126.083 103.016 126.305C103.016 126.532 103.061 126.736 103.151 126.915C103.245 127.095 103.376 127.236 103.543 127.339C103.71 127.442 103.9 127.493 104.114 127.493C104.337 127.493 104.516 127.459 104.653 127.39C104.683 127.373 104.724 127.345 104.775 127.307C104.818 127.273 104.855 127.247 104.884 127.23C104.919 127.213 104.959 127.204 105.006 127.204C105.092 127.204 105.158 127.232 105.206 127.288C105.257 127.339 105.283 127.408 105.283 127.493C105.283 127.583 105.225 127.673 105.109 127.763C104.998 127.848 104.846 127.919 104.653 127.975C104.465 128.03 104.262 128.058 104.043 128.058C103.718 128.058 103.431 127.983 103.183 127.833C102.935 127.679 102.742 127.47 102.605 127.204C102.473 126.935 102.406 126.635 102.406 126.305C102.406 125.976 102.477 125.678 102.618 125.413C102.759 125.143 102.956 124.934 103.209 124.784C103.461 124.63 103.75 124.553 104.076 124.553Z" fill="#AAAAAA"/>
<path d="M108.754 127.686C108.754 127.604 108.722 127.529 108.658 127.461L107.425 126.126L108.536 125.137C108.617 125.068 108.658 124.991 108.658 124.906C108.658 124.837 108.628 124.773 108.568 124.713C108.508 124.649 108.441 124.617 108.369 124.617C108.292 124.617 108.217 124.649 108.144 124.713L106.571 126.158V123.551C106.571 123.465 106.541 123.393 106.481 123.333C106.425 123.273 106.355 123.243 106.269 123.243C106.179 123.243 106.104 123.273 106.044 123.333C105.989 123.393 105.961 123.465 105.961 123.551V127.686C105.961 127.771 105.989 127.844 106.044 127.904C106.104 127.964 106.179 127.994 106.269 127.994C106.355 127.994 106.425 127.964 106.481 127.904C106.541 127.844 106.571 127.771 106.571 127.686V126.89L106.956 126.543L108.221 127.885C108.277 127.953 108.352 127.987 108.446 127.987C108.518 127.987 108.587 127.96 108.651 127.904C108.72 127.844 108.754 127.771 108.754 127.686Z" fill="#AAAAAA"/>
<g clip-path="url(#clip4_227_756)">
<path d="M143.91 127.417C143.927 127.713 143.997 127.953 144.12 128.138C144.354 128.484 144.767 128.657 145.36 128.657C145.625 128.657 145.866 128.619 146.084 128.543C146.506 128.396 146.717 128.133 146.717 127.754C146.717 127.47 146.628 127.268 146.45 127.147C146.27 127.028 145.988 126.925 145.605 126.838L144.898 126.678C144.436 126.574 144.109 126.459 143.917 126.333C143.586 126.115 143.42 125.79 143.42 125.356C143.42 124.887 143.582 124.503 143.907 124.202C144.231 123.901 144.69 123.751 145.285 123.751C145.832 123.751 146.296 123.883 146.678 124.149C147.061 124.411 147.253 124.833 147.253 125.413H146.589C146.553 125.134 146.477 124.919 146.361 124.77C146.146 124.498 145.78 124.362 145.264 124.362C144.847 124.362 144.547 124.449 144.365 124.625C144.182 124.8 144.091 125.003 144.091 125.236C144.091 125.491 144.198 125.678 144.411 125.797C144.551 125.873 144.867 125.967 145.36 126.081L146.091 126.248C146.444 126.329 146.717 126.439 146.908 126.578C147.24 126.822 147.406 127.177 147.406 127.641C147.406 128.219 147.195 128.632 146.773 128.881C146.354 129.129 145.866 129.254 145.31 129.254C144.661 129.254 144.153 129.088 143.786 128.756C143.419 128.427 143.239 127.981 143.246 127.417H143.91ZM148.202 123.882H148.816V126.912L150.458 125.296H151.275L149.818 126.721L151.356 129.101H150.539L149.353 127.182L148.816 127.673V129.101H148.202V123.882ZM151.854 125.314H152.504V129.101H151.854V125.314ZM151.854 123.882H152.504V124.607H151.854V123.882ZM155.079 128.671C155.378 128.671 155.625 128.547 155.822 128.298C156.021 128.047 156.12 127.673 156.12 127.175C156.12 126.872 156.077 126.612 155.989 126.394C155.823 125.975 155.52 125.765 155.079 125.765C154.637 125.765 154.333 125.986 154.17 126.429C154.082 126.666 154.039 126.967 154.039 127.332C154.039 127.625 154.082 127.875 154.17 128.081C154.336 128.474 154.639 128.671 155.079 128.671ZM153.424 125.314H154.046V125.818C154.174 125.645 154.313 125.512 154.465 125.417C154.68 125.275 154.934 125.204 155.225 125.204C155.656 125.204 156.022 125.369 156.323 125.701C156.624 126.03 156.774 126.502 156.774 127.115C156.774 127.944 156.557 128.536 156.124 128.891C155.849 129.116 155.529 129.229 155.165 129.229C154.878 129.229 154.638 129.166 154.444 129.04C154.33 128.969 154.203 128.847 154.063 128.675V130.618H153.424V125.314Z" fill="#AAAAAA"/>
<path d="M142.894 129.829H157.051V130.188H142.894V129.829Z" fill="#AAAAAA"/>
<rect x="166.009" y="117.646" width="35.9742" height="17.9095" rx="1.67901" fill="#2D87F1"/>
<path d="M177.514 129.601H176.42L174.281 125.881V129.601H173.262V124.364H174.409L176.494 128.02V124.364H177.514V129.601ZM181.77 128.464C181.744 128.694 181.624 128.927 181.411 129.164C181.08 129.54 180.615 129.729 180.019 129.729C179.526 129.729 179.091 129.57 178.715 129.253C178.338 128.935 178.15 128.419 178.15 127.704C178.15 127.033 178.319 126.52 178.658 126.162C178.999 125.804 179.441 125.625 179.983 125.625C180.305 125.625 180.595 125.686 180.853 125.807C181.112 125.927 181.325 126.118 181.493 126.379C181.644 126.608 181.743 126.875 181.788 127.178C181.814 127.356 181.824 127.611 181.82 127.945H179.17C179.184 128.334 179.306 128.606 179.535 128.762C179.675 128.86 179.843 128.908 180.04 128.908C180.248 128.908 180.418 128.849 180.548 128.73C180.619 128.666 180.682 128.578 180.736 128.464H181.77ZM180.768 127.277C180.752 127.01 180.67 126.807 180.523 126.67C180.379 126.53 180.199 126.46 179.983 126.46C179.749 126.46 179.566 126.534 179.436 126.681C179.308 126.827 179.228 127.026 179.194 127.277H180.768ZM185.955 129.601H184.694L184.026 128.439L183.354 129.601H182.125L183.447 127.64L182.182 125.736H183.422L184.069 126.858L184.701 125.736H185.905L184.633 127.622L185.955 129.601ZM188.328 128.88V129.636L187.849 129.654C187.37 129.671 187.043 129.588 186.868 129.405C186.754 129.289 186.697 129.111 186.697 128.869V126.485H186.157V125.764H186.697V124.684H187.699V125.764H188.328V126.485H187.699V128.531C187.699 128.69 187.719 128.79 187.76 128.83C187.8 128.868 187.923 128.887 188.129 128.887C188.16 128.887 188.192 128.887 188.225 128.887C188.261 128.884 188.295 128.882 188.328 128.88Z" fill="white"/>
<path d="M195.171 126.805L192.842 129.134C192.786 129.19 192.717 129.218 192.637 129.218C192.557 129.218 192.489 129.19 192.433 129.134L192.169 128.87C192.113 128.814 192.085 128.746 192.085 128.666C192.077 128.586 192.101 128.518 192.157 128.462L194.019 126.601L192.157 124.74C192.101 124.684 192.077 124.615 192.085 124.535C192.085 124.455 192.113 124.387 192.169 124.331L192.433 124.067C192.489 124.011 192.557 123.983 192.637 123.983C192.717 123.983 192.786 124.011 192.842 124.067L195.171 126.397C195.235 126.453 195.268 126.521 195.268 126.601C195.268 126.681 195.235 126.749 195.171 126.805Z" fill="white"/>
</g>
</g>
</g>
</g>
<defs>
<filter id="filter0_d_227_756" x="48.7676" y="4.05371" width="237.141" height="261.72" filterUnits="userSpaceOnUse" color-interpolation-filters="sRGB">
<feFlood flood-opacity="0" result="BackgroundImageFix"/>
<feColorMatrix in="SourceAlpha" type="matrix" values="0 0 0 0 0 0 0 0 0 0 0 0 0 0 0 0 0 0 127 0" result="hardAlpha"/>
<feOffset dx="8" dy="12"/>
<feGaussianBlur stdDeviation="12"/>
<feColorMatrix type="matrix" values="0 0 0 0 0.689332 0 0 0 0 0.773247 0 0 0 0 0.873944 0 0 0 1 0"/>
<feBlend mode="normal" in2="BackgroundImageFix" result="effect1_dropShadow_227_756"/>
<feBlend mode="normal" in="SourceGraphic" in2="effect1_dropShadow_227_756" result="shape"/>
</filter>
<filter id="filter1_d_227_756" x="24" y="94.6912" width="230.535" height="87.8188" filterUnits="userSpaceOnUse" color-interpolation-filters="sRGB">
<feFlood flood-opacity="0" result="BackgroundImageFix"/>
<feColorMatrix in="SourceAlpha" type="matrix" values="0 0 0 0 0 0 0 0 0 0 0 0 0 0 0 0 0 0 127 0" result="hardAlpha"/>
<feMorphology radius="2" operator="dilate" in="SourceAlpha" result="effect1_dropShadow_227_756"/>
<feOffset dx="12" dy="12"/>
<feGaussianBlur stdDeviation="12"/>
<feComposite in2="hardAlpha" operator="out"/>
<feColorMatrix type="matrix" values="0 0 0 0 0.465807 0 0 0 0 0.571433 0 0 0 0 0.695699 0 0 0 0.2 0"/>
<feBlend mode="normal" in2="BackgroundImageFix" result="effect1_dropShadow_227_756"/>
<feBlend mode="normal" in="SourceGraphic" in2="effect1_dropShadow_227_756" result="shape"/>
</filter>
<clipPath id="clip0_227_756">
<rect width="323" height="160" fill="white"/>
</clipPath>
<clipPath id="clip1_227_756">
<rect width="189" height="213.685" fill="white" transform="translate(64.7676 30.1519)"/>
</clipPath>
<clipPath id="clip2_227_756">
<rect width="157" height="108.699" fill="white" transform="translate(80.7676 83.4453)"/>
</clipPath>
<clipPath id="clip3_227_756">
<rect width="151.671" height="17.9095" fill="white" transform="translate(51.4321 117.646)"/>
</clipPath>
<clipPath id="clip4_227_756">
<rect width="59.9289" height="17.9095" fill="white" transform="translate(142.055 117.646)"/>
</clipPath>
</defs>
</svg>
