<svg width="320" height="160" viewBox="0 0 320 160" fill="none" xmlns="http://www.w3.org/2000/svg">
<g clip-path="url(#clip0_227_869)">
<rect width="320" height="160" rx="8" fill="#DEEDFF"/>
<g opacity="0.4" filter="url(#filter0_d_227_869)">
<rect x="53.6904" y="62.7129" width="145.819" height="176.166" rx="8" transform="rotate(-15 53.6904 62.7129)" fill="white"/>
</g>
<g opacity="0.4" filter="url(#filter1_d_227_869)">
<rect x="70.4316" y="39.5803" width="138.93" height="176.166" rx="8" transform="rotate(-1.98014 70.4316 39.5803)" fill="white"/>
</g>
<g filter="url(#filter2_d_227_869)">
<rect x="85" y="25" width="147" height="145" rx="8" fill="white"/>
</g>
<path d="M236.839 29.446C245.034 29.446 251.677 36.09 251.677 44.2845C251.677 52.4797 245.034 59.1236 236.839 59.1236C228.644 59.1236 222 52.4797 222 44.2845C222 36.09 228.644 29.446 236.839 29.446Z" fill="#FFDA2D"/>
<path d="M251.138 28.3538C251.962 28.3538 252.629 29.0208 252.629 29.8443C252.629 30.6677 251.962 31.3347 251.138 31.3347C250.315 31.3347 249.648 30.6677 249.648 29.8443C249.648 29.0208 250.315 28.3538 251.138 28.3538Z" fill="#FD4151"/>
<path d="M222.41 57.1484C223.1 57.1484 223.659 57.7073 223.659 58.397C223.659 59.0867 223.1 59.6463 222.41 59.6463C221.72 59.6463 221.162 59.0867 221.162 58.397C221.162 57.7073 221.72 57.1484 222.41 57.1484Z" fill="#FD4151"/>
<path d="M236.839 50.8965C237.948 50.8965 238.887 51.6216 239.21 52.6233C237.755 53.5003 235.925 53.5016 234.468 52.6233C234.79 51.6216 235.73 50.8965 236.839 50.8965Z" fill="#FD4151"/>
<path d="M241.438 47.7493V48.6823C241.438 50.3546 240.545 51.8182 239.21 52.6233C238.887 51.6216 237.948 50.8965 236.839 50.8965C235.73 50.8965 234.79 51.6216 234.468 52.6233C233.133 51.8182 232.24 50.3546 232.24 48.6823V47.7493H241.438Z" fill="#404040"/>
<path d="M245.529 38.4655C246.23 39.1665 246.23 40.3026 245.529 41.0029L242.743 43.7894L239.957 41.0029C239.253 40.2989 239.26 39.163 239.957 38.4655C240.658 37.7644 241.794 37.7644 242.495 38.4655L242.743 38.7138L242.991 38.4655C243.342 38.1153 243.801 37.9399 244.26 37.9399C244.719 37.9399 245.179 38.1153 245.529 38.4655Z" fill="#FD4151"/>
<path d="M233.721 41.0029L230.935 43.7894L228.149 41.0029C227.445 40.2989 227.452 39.163 228.149 38.4655C228.849 37.7644 229.986 37.7644 230.687 38.4655L230.935 38.7138L231.183 38.4655C231.533 38.1153 231.992 37.9399 232.452 37.9399C234.038 37.9399 234.852 39.8723 233.721 41.0029Z" fill="#FD4151"/>
<path d="M249.233 56.5337C249.573 56.5337 249.848 56.8089 249.848 57.1484C249.848 57.488 249.573 57.7632 249.233 57.7632C248.895 57.7632 248.619 57.488 248.619 57.1484C248.619 56.8089 248.895 56.5337 249.233 56.5337Z" fill="black"/>
<path d="M223.659 32.5642C223.998 32.5642 224.273 32.289 224.273 31.9494C224.273 31.6099 223.998 31.3347 223.659 31.3347C223.319 31.3347 223.044 31.6099 223.044 31.9494C223.044 32.289 223.319 32.5642 223.659 32.5642Z" fill="black"/>
<path d="M230.685 44.0392L227.899 41.2527C227.06 40.4133 227.06 39.0547 227.899 38.2151C228.737 37.3762 230.095 37.3749 230.935 38.2133C231.341 37.8087 231.879 37.5859 232.452 37.5859C233.639 37.5859 234.6 38.5466 234.6 39.7342C234.6 40.308 234.377 40.8474 233.971 41.2529L231.185 44.0392C231.047 44.1772 230.823 44.1773 230.685 44.0392ZM228.4 38.7152C227.837 39.2781 227.836 40.189 228.399 40.7526L230.935 43.2889L233.471 40.7526C234.82 39.405 232.781 37.3673 231.433 38.7153C231.235 38.8881 231.158 39.0672 230.935 39.0672C230.712 39.0672 230.635 38.888 230.437 38.7153C229.874 38.1525 228.963 38.1515 228.4 38.7152Z" fill="black"/>
<path d="M242.493 44.0392L239.707 41.2527C238.866 40.4115 238.869 39.053 239.707 38.2151C240.545 37.3765 241.903 37.3746 242.743 38.2133C243.585 37.3745 244.941 37.3771 245.779 38.215C246.618 39.0546 246.619 40.4134 245.779 41.2528L242.993 44.0392C242.855 44.1772 242.631 44.1773 242.493 44.0392ZM240.208 38.7152C239.645 39.2781 239.644 40.189 240.208 40.7526L242.743 43.2889L245.279 40.7526C245.551 40.4805 245.701 40.1189 245.701 39.7342C245.701 38.9386 245.057 38.2933 244.261 38.2933C243.876 38.2933 243.514 38.4433 243.241 38.7155C243.043 38.8881 242.966 39.0672 242.743 39.0672C242.52 39.0672 242.443 38.888 242.245 38.7153C241.682 38.1523 240.77 38.1517 240.208 38.7152Z" fill="black"/>
<path d="M234.36 52.9598C234.174 52.8999 234.072 52.7007 234.131 52.5147C234.511 51.3352 235.599 50.5427 236.839 50.5427C238.078 50.5427 239.166 51.3351 239.547 52.5145C239.607 52.7004 239.505 52.8997 239.319 52.9598C239.133 53.0196 238.934 52.9176 238.874 52.7318C238.588 51.8455 237.77 51.2501 236.839 51.2501C235.908 51.2501 235.09 51.8455 234.805 52.7316C234.744 52.9191 234.543 53.0194 234.36 52.9598Z" fill="black"/>
<path d="M236.839 53.6348C234.167 53.6348 231.887 51.4897 231.887 48.6822V47.7492C231.887 47.5538 232.045 47.3955 232.24 47.3955H241.438C241.633 47.3955 241.792 47.5538 241.792 47.7492V48.6822C241.792 50.4338 240.895 52.0203 239.393 52.926C239.393 52.926 239.393 52.926 239.393 52.926C238.624 53.3898 237.741 53.6348 236.839 53.6348ZM232.594 48.1029V48.6822C232.594 51.0876 234.547 52.9274 236.839 52.9274C239.132 52.9274 241.084 51.0863 241.084 48.6822V48.1029H232.594Z" fill="black"/>
<path d="M236.839 59.4773C228.443 59.4773 221.647 52.6821 221.647 44.2844C221.647 35.9075 228.462 29.0923 236.839 29.0923C245.216 29.0923 252.031 35.9075 252.031 44.2844C252.031 52.6807 245.237 59.4773 236.839 59.4773ZM236.839 29.7997C228.852 29.7997 222.354 36.2975 222.354 44.2844C222.354 52.2718 228.852 58.7699 236.839 58.7699C244.826 58.7699 251.324 52.2718 251.324 44.2844C251.324 36.2975 244.826 29.7997 236.839 29.7997Z" fill="black"/>
<path d="M251.139 31.6884C250.122 31.6884 249.294 30.8611 249.294 29.8442C249.294 28.8273 250.122 28 251.139 28C252.156 28 252.983 28.8273 252.983 29.8442C252.983 30.8611 252.156 31.6884 251.139 31.6884ZM251.139 28.7074C250.512 28.7074 250.002 29.2174 250.002 29.8442C250.002 30.471 250.512 30.981 251.139 30.981C251.765 30.981 252.275 30.471 252.275 29.8442C252.275 29.2174 251.765 28.7074 251.139 28.7074Z" fill="black"/>
<path d="M222.41 60.0001C221.527 60.0001 220.808 59.281 220.808 58.3971C220.808 57.5136 221.527 56.7949 222.41 56.7949C223.294 56.7949 224.013 57.5136 224.013 58.3971C224.013 59.281 223.294 60.0001 222.41 60.0001ZM222.41 57.5023C221.917 57.5023 221.516 57.9037 221.516 58.397C221.516 58.8908 221.917 59.2926 222.41 59.2926C222.904 59.2926 223.305 58.8908 223.305 58.397C223.305 57.9037 222.904 57.5023 222.41 57.5023Z" fill="black"/>
<path d="M107.385 43.0812H108.641L106.975 49H105.795L105.08 45.5386L104.871 44.3942L104.662 45.5386L103.947 49H102.799L101.12 43.0812H102.434L103.217 46.4702L103.385 47.4139L103.558 46.4903L104.224 43.0812H105.529L106.232 46.4702L106.413 47.4139L106.594 46.5064L107.385 43.0812ZM113.255 46.4301V49H112.087V46.3377C112.087 46.1022 112.047 45.9121 111.966 45.7675C111.862 45.5641 111.664 45.4623 111.372 45.4623C111.07 45.4623 110.839 45.5641 110.681 45.7675C110.526 45.9683 110.448 46.2561 110.448 46.6309V49H109.308V43.1012H110.448V45.1933C110.614 44.939 110.806 44.7623 111.023 44.6633C111.242 44.5615 111.472 44.5107 111.713 44.5107C111.984 44.5107 112.229 44.5575 112.448 44.6512C112.67 44.7449 112.852 44.8881 112.994 45.0809C113.115 45.2442 113.188 45.4128 113.215 45.5868C113.242 45.7582 113.255 46.0392 113.255 46.4301ZM114.492 45.0969C114.795 44.7115 115.314 44.5187 116.05 44.5187C116.529 44.5187 116.955 44.6137 117.327 44.8038C117.699 44.9939 117.885 45.3526 117.885 45.88V47.8877C117.885 48.0269 117.888 48.1956 117.893 48.3937C117.901 48.5436 117.924 48.6453 117.961 48.6988C117.999 48.7524 118.055 48.7965 118.13 48.8313V49H116.885C116.85 48.9117 116.826 48.8287 116.813 48.751C116.8 48.6734 116.789 48.5851 116.781 48.486C116.623 48.6573 116.441 48.8032 116.235 48.9237C115.989 49.0656 115.71 49.1365 115.4 49.1365C115.003 49.1365 114.675 49.0241 114.416 48.7992C114.159 48.5717 114.03 48.2504 114.03 47.8355C114.03 47.2974 114.238 46.9079 114.653 46.667C114.88 46.5358 115.215 46.4421 115.657 46.3859L116.046 46.3377C116.258 46.311 116.409 46.2775 116.5 46.2373C116.663 46.1677 116.745 46.0593 116.745 45.9121C116.745 45.7327 116.682 45.6096 116.556 45.5427C116.433 45.4731 116.251 45.4383 116.01 45.4383C115.74 45.4383 115.548 45.5052 115.436 45.639C115.355 45.7381 115.302 45.8719 115.275 46.0406H114.171C114.195 45.6578 114.302 45.3432 114.492 45.0969ZM115.343 48.1728C115.45 48.2611 115.582 48.3053 115.737 48.3053C115.983 48.3053 116.209 48.233 116.415 48.0885C116.624 47.9439 116.733 47.6802 116.741 47.2974V46.8718C116.668 46.9173 116.595 46.9548 116.52 46.9842C116.448 47.011 116.347 47.0364 116.219 47.0605L115.962 47.1087C115.721 47.1515 115.548 47.2037 115.444 47.2653C115.267 47.3697 115.179 47.5317 115.179 47.7512C115.179 47.9466 115.234 48.0871 115.343 48.1728ZM120.909 48.1849V49.0402L120.367 49.0602C119.826 49.079 119.457 48.9853 119.258 48.7791C119.13 48.648 119.066 48.4459 119.066 48.1728V45.4784H118.455V44.6633H119.066V43.4426H120.198V44.6633H120.909V45.4784H120.198V47.7913C120.198 47.9707 120.221 48.0831 120.266 48.1286C120.312 48.1715 120.451 48.1929 120.684 48.1929C120.719 48.1929 120.755 48.1929 120.792 48.1929C120.833 48.1902 120.871 48.1875 120.909 48.1849ZM124.097 45.0969C124.4 44.7115 124.919 44.5187 125.655 44.5187C126.134 44.5187 126.56 44.6137 126.932 44.8038C127.304 44.9939 127.49 45.3526 127.49 45.88V47.8877C127.49 48.0269 127.493 48.1956 127.498 48.3937C127.506 48.5436 127.529 48.6453 127.567 48.6988C127.604 48.7524 127.66 48.7965 127.735 48.8313V49H126.49C126.456 48.9117 126.431 48.8287 126.418 48.751C126.405 48.6734 126.394 48.5851 126.386 48.486C126.228 48.6573 126.046 48.8032 125.84 48.9237C125.594 49.0656 125.315 49.1365 125.005 49.1365C124.608 49.1365 124.281 49.0241 124.021 48.7992C123.764 48.5717 123.635 48.2504 123.635 47.8355C123.635 47.2974 123.843 46.9079 124.258 46.667C124.485 46.5358 124.82 46.4421 125.262 46.3859L125.651 46.3377C125.863 46.311 126.014 46.2775 126.105 46.2373C126.268 46.1677 126.35 46.0593 126.35 45.9121C126.35 45.7327 126.287 45.6096 126.161 45.5427C126.038 45.4731 125.856 45.4383 125.615 45.4383C125.345 45.4383 125.153 45.5052 125.041 45.639C124.96 45.7381 124.907 45.8719 124.88 46.0406H123.776C123.8 45.6578 123.907 45.3432 124.097 45.0969ZM124.948 48.1728C125.055 48.2611 125.187 48.3053 125.342 48.3053C125.588 48.3053 125.814 48.233 126.021 48.0885C126.229 47.9439 126.338 47.6802 126.346 47.2974V46.8718C126.274 46.9173 126.2 46.9548 126.125 46.9842C126.053 47.011 125.952 47.0364 125.824 47.0605L125.567 47.1087C125.326 47.1515 125.153 47.2037 125.049 47.2653C124.872 47.3697 124.784 47.5317 124.784 47.7512C124.784 47.9466 124.839 48.0871 124.948 48.1728ZM130.711 45.6792C130.25 45.6792 129.941 45.8291 129.783 46.1289C129.695 46.2976 129.651 46.5572 129.651 46.9079V49H128.498V44.6231H129.59V45.3861C129.767 45.0943 129.921 44.8948 130.052 44.7877C130.266 44.6084 130.545 44.5187 130.887 44.5187C130.909 44.5187 130.926 44.52 130.94 44.5227C130.956 44.5227 130.989 44.5241 131.04 44.5267V45.6993C130.968 45.6912 130.903 45.6859 130.847 45.6832C130.791 45.6805 130.745 45.6792 130.711 45.6792ZM135.461 47.715C135.432 47.9747 135.296 48.2384 135.055 48.5061C134.681 48.9317 134.156 49.1446 133.481 49.1446C132.925 49.1446 132.433 48.9652 132.008 48.6065C131.582 48.2478 131.369 47.6642 131.369 46.8557C131.369 46.0981 131.561 45.5172 131.943 45.113C132.329 44.7088 132.828 44.5067 133.441 44.5067C133.805 44.5067 134.133 44.5749 134.425 44.7115C134.717 44.848 134.958 45.0635 135.148 45.3579C135.319 45.6176 135.43 45.9188 135.481 46.2614C135.511 46.4622 135.523 46.7513 135.517 47.1288H132.522C132.538 47.5678 132.676 47.8757 132.935 48.0523C133.093 48.1621 133.283 48.217 133.505 48.217C133.741 48.217 133.932 48.1501 134.08 48.0162C134.16 47.9439 134.231 47.8435 134.292 47.715H135.461ZM134.329 46.3739C134.31 46.0714 134.218 45.8425 134.052 45.6872C133.888 45.5293 133.685 45.4503 133.441 45.4503C133.176 45.4503 132.97 45.5333 132.823 45.6993C132.678 45.8652 132.587 46.0901 132.55 46.3739H134.329ZM140.36 47.8516L141.263 44.6231H142.48L140.978 48.9277C140.689 49.7576 140.46 50.2716 140.292 50.4697C140.123 50.6704 139.786 50.7708 139.28 50.7708C139.178 50.7708 139.096 50.7695 139.035 50.7668C138.973 50.7668 138.881 50.7628 138.758 50.7548V49.8392L138.902 49.8473C139.015 49.8526 139.122 49.8486 139.223 49.8352C139.325 49.8218 139.411 49.7911 139.48 49.7429C139.547 49.6974 139.609 49.6023 139.665 49.4578C139.724 49.3132 139.748 49.2249 139.737 49.1927L138.131 44.6231H139.404L140.36 47.8516ZM146.809 45.1772C147.178 45.6404 147.363 46.1878 147.363 46.8196C147.363 47.4621 147.178 48.0122 146.809 48.47C146.439 48.925 145.879 49.1526 145.126 49.1526C144.374 49.1526 143.813 48.925 143.444 48.47C143.074 48.0122 142.89 47.4621 142.89 46.8196C142.89 46.1878 143.074 45.6404 143.444 45.1772C143.813 44.7141 144.374 44.4826 145.126 44.4826C145.879 44.4826 146.439 44.7141 146.809 45.1772ZM145.122 45.4503C144.788 45.4503 144.529 45.5694 144.347 45.8077C144.168 46.0433 144.078 46.3806 144.078 46.8196C144.078 47.2586 144.168 47.5973 144.347 47.8355C144.529 48.0738 144.788 48.1929 145.122 48.1929C145.457 48.1929 145.714 48.0738 145.893 47.8355C146.073 47.5973 146.162 47.2586 146.162 46.8196C146.162 46.3806 146.073 46.0433 145.893 45.8077C145.714 45.5694 145.457 45.4503 145.122 45.4503ZM150.993 48.3816C150.982 48.395 150.955 48.4352 150.913 48.5021C150.87 48.569 150.819 48.6279 150.76 48.6788C150.581 48.8394 150.407 48.9491 150.238 49.008C150.072 49.0669 149.877 49.0964 149.652 49.0964C149.004 49.0964 148.568 48.8635 148.343 48.3977C148.217 48.1407 148.154 47.7619 148.154 47.2613V44.6231H149.326V47.2613C149.326 47.5103 149.356 47.6976 149.415 47.8235C149.519 48.0457 149.724 48.1567 150.029 48.1567C150.42 48.1567 150.688 47.9988 150.832 47.6829C150.907 47.5116 150.945 47.2854 150.945 47.0043V44.6231H152.105V49H150.993V48.3816ZM155.526 43.0812H156.671V49H155.526V43.0812ZM161.441 45.1772C161.811 45.6404 161.995 46.1878 161.995 46.8196C161.995 47.4621 161.811 48.0122 161.441 48.47C161.072 48.925 160.511 49.1526 159.759 49.1526C159.007 49.1526 158.446 48.925 158.076 48.47C157.707 48.0122 157.522 47.4621 157.522 46.8196C157.522 46.1878 157.707 45.6404 158.076 45.1772C158.446 44.7141 159.007 44.4826 159.759 44.4826C160.511 44.4826 161.072 44.7141 161.441 45.1772ZM159.755 45.4503C159.42 45.4503 159.162 45.5694 158.98 45.8077C158.8 46.0433 158.711 46.3806 158.711 46.8196C158.711 47.2586 158.8 47.5973 158.98 47.8355C159.162 48.0738 159.42 48.1929 159.755 48.1929C160.089 48.1929 160.346 48.0738 160.526 47.8355C160.705 47.5973 160.795 47.2586 160.795 46.8196C160.795 46.3806 160.705 46.0433 160.526 45.8077C160.346 45.5694 160.089 45.4503 159.755 45.4503ZM166.469 45.1772C166.838 45.6404 167.023 46.1878 167.023 46.8196C167.023 47.4621 166.838 48.0122 166.469 48.47C166.099 48.925 165.538 49.1526 164.786 49.1526C164.034 49.1526 163.473 48.925 163.104 48.47C162.734 48.0122 162.55 47.4621 162.55 46.8196C162.55 46.1878 162.734 45.6404 163.104 45.1772C163.473 44.7141 164.034 44.4826 164.786 44.4826C165.538 44.4826 166.099 44.7141 166.469 45.1772ZM164.782 45.4503C164.447 45.4503 164.189 45.5694 164.007 45.8077C163.828 46.0433 163.738 46.3806 163.738 46.8196C163.738 47.2586 163.828 47.5973 164.007 47.8355C164.189 48.0738 164.447 48.1929 164.782 48.1929C165.117 48.1929 165.374 48.0738 165.553 47.8355C165.732 47.5973 165.822 47.2586 165.822 46.8196C165.822 46.3806 165.732 46.0433 165.553 45.8077C165.374 45.5694 165.117 45.4503 164.782 45.4503ZM171.861 49H170.48L169.432 47.1288L168.958 47.6227V49H167.834V43.1012H168.958V46.2895L170.384 44.6432H171.801L170.271 46.3176L171.861 49ZM173.6 44.6231V49H172.44V44.6231H173.6ZM173.6 43.045V44.1011H172.44V43.045H173.6ZM176.772 45.4704C176.384 45.4704 176.118 45.635 175.973 45.9643C175.898 46.1383 175.861 46.3605 175.861 46.6309V49H174.72V44.6311H175.825V45.2696C175.972 45.0447 176.111 44.8828 176.242 44.7837C176.478 44.607 176.776 44.5187 177.138 44.5187C177.59 44.5187 177.96 44.6378 178.246 44.8761C178.535 45.1117 178.68 45.5038 178.68 46.0526V49H177.507V46.3377C177.507 46.1075 177.476 45.9308 177.415 45.8077C177.302 45.5828 177.088 45.4704 176.772 45.4704ZM180.977 49.767C181.1 49.8714 181.307 49.9236 181.599 49.9236C182.011 49.9236 182.287 49.7857 182.426 49.51C182.517 49.3333 182.563 49.0361 182.563 48.6185V48.3374C182.453 48.5248 182.335 48.6654 182.209 48.7591C181.982 48.9331 181.686 49.0201 181.322 49.0201C180.76 49.0201 180.31 48.8233 179.973 48.4298C179.638 48.0336 179.471 47.4982 179.471 46.8236C179.471 46.1731 179.633 45.627 179.957 45.1853C180.281 44.7409 180.74 44.5187 181.334 44.5187C181.554 44.5187 181.745 44.5522 181.908 44.6191C182.187 44.7342 182.411 44.9457 182.583 45.2535V44.6231H183.695V48.7751C183.695 49.34 183.6 49.7656 183.41 50.0521C183.083 50.5446 182.457 50.7909 181.531 50.7909C180.971 50.7909 180.515 50.6812 180.161 50.4616C179.808 50.2421 179.613 49.9142 179.575 49.4778H180.82C180.852 49.6117 180.904 49.7081 180.977 49.767ZM180.784 47.5062C180.939 47.8757 181.218 48.0604 181.619 48.0604C181.887 48.0604 182.113 47.96 182.298 47.7592C182.482 47.5558 182.575 47.2332 182.575 46.7915C182.575 46.3765 182.486 46.0607 182.31 45.8438C182.136 45.627 181.902 45.5186 181.607 45.5186C181.205 45.5186 180.928 45.7073 180.776 46.0848C180.696 46.2855 180.655 46.5331 180.655 46.8276C180.655 47.0819 180.698 47.3081 180.784 47.5062ZM189.06 48.1849V49.0402L188.518 49.0602C187.977 49.079 187.608 48.9853 187.409 48.7791C187.281 48.648 187.217 48.4459 187.217 48.1728V45.4784H186.606V44.6633H187.217V43.4426H188.349V44.6633H189.06V45.4784H188.349V47.7913C188.349 47.9707 188.372 48.0831 188.417 48.1286C188.463 48.1715 188.602 48.1929 188.835 48.1929C188.87 48.1929 188.906 48.1929 188.943 48.1929C188.984 48.1902 189.022 48.1875 189.06 48.1849ZM193.445 45.1772C193.814 45.6404 193.999 46.1878 193.999 46.8196C193.999 47.4621 193.814 48.0122 193.445 48.47C193.075 48.925 192.514 49.1526 191.762 49.1526C191.01 49.1526 190.449 48.925 190.08 48.47C189.71 48.0122 189.526 47.4621 189.526 46.8196C189.526 46.1878 189.71 45.6404 190.08 45.1772C190.449 44.7141 191.01 44.4826 191.762 44.4826C192.514 44.4826 193.075 44.7141 193.445 45.1772ZM191.758 45.4503C191.424 45.4503 191.165 45.5694 190.983 45.8077C190.804 46.0433 190.714 46.3806 190.714 46.8196C190.714 47.2586 190.804 47.5973 190.983 47.8355C191.165 48.0738 191.424 48.1929 191.758 48.1929C192.093 48.1929 192.35 48.0738 192.529 47.8355C192.709 47.5973 192.798 47.2586 192.798 46.8196C192.798 46.3806 192.709 46.0433 192.529 45.8077C192.35 45.5694 192.093 45.4503 191.758 45.4503ZM101.699 56.0969C102.001 55.7115 102.521 55.5187 103.257 55.5187C103.736 55.5187 104.162 55.6137 104.534 55.8038C104.906 55.9939 105.092 56.3526 105.092 56.88V58.8877C105.092 59.0269 105.094 59.1956 105.1 59.3937C105.108 59.5436 105.131 59.6453 105.168 59.6988C105.206 59.7524 105.262 59.7965 105.337 59.8313V60H104.092C104.057 59.9117 104.033 59.8287 104.02 59.751C104.006 59.6734 103.996 59.5851 103.988 59.486C103.83 59.6573 103.648 59.8032 103.441 59.9237C103.195 60.0656 102.917 60.1365 102.606 60.1365C102.21 60.1365 101.882 60.0241 101.622 59.7992C101.365 59.5717 101.237 59.2504 101.237 58.8355C101.237 58.2974 101.444 57.9079 101.859 57.667C102.087 57.5358 102.421 57.4421 102.863 57.3859L103.253 57.3377C103.464 57.311 103.615 57.2775 103.706 57.2373C103.87 57.1677 103.951 57.0593 103.951 56.9121C103.951 56.7327 103.888 56.6096 103.763 56.5427C103.64 56.4731 103.457 56.4383 103.217 56.4383C102.946 56.4383 102.755 56.5052 102.642 56.639C102.562 56.7381 102.508 56.8719 102.482 57.0406H101.377C101.402 56.6578 101.509 56.3432 101.699 56.0969ZM102.55 59.1728C102.657 59.2611 102.788 59.3053 102.943 59.3053C103.19 59.3053 103.416 59.233 103.622 59.0885C103.831 58.9439 103.939 58.6802 103.947 58.2974V57.8718C103.875 57.9173 103.801 57.9548 103.727 57.9842C103.654 58.011 103.554 58.0364 103.425 58.0605L103.168 58.1087C102.927 58.1515 102.755 58.2037 102.65 58.2653C102.474 58.3697 102.385 58.5317 102.385 58.7512C102.385 58.9466 102.44 59.0871 102.55 59.1728ZM109.898 57.1932H108.726C108.704 57.0299 108.65 56.8826 108.561 56.7515C108.433 56.5748 108.233 56.4864 107.963 56.4864C107.577 56.4864 107.314 56.6778 107.172 57.0607C107.097 57.2641 107.059 57.5345 107.059 57.8718C107.059 58.193 107.097 58.4514 107.172 58.6468C107.308 59.0108 107.565 59.1929 107.943 59.1929C108.21 59.1929 108.401 59.1206 108.513 58.976C108.625 58.8315 108.694 58.6441 108.718 58.4139H109.886C109.86 58.7619 109.734 59.0912 109.509 59.4017C109.15 59.9023 108.619 60.1526 107.915 60.1526C107.211 60.1526 106.693 59.9438 106.361 59.5262C106.029 59.1086 105.863 58.5665 105.863 57.8999C105.863 57.1477 106.046 56.5627 106.413 56.1451C106.78 55.7275 107.286 55.5187 107.931 55.5187C108.48 55.5187 108.928 55.6418 109.276 55.8881C109.627 56.1344 109.834 56.5694 109.898 57.1932ZM114.645 57.4301V60H113.476V57.3377C113.476 57.1022 113.436 56.9121 113.356 56.7675C113.251 56.5641 113.053 56.4623 112.761 56.4623C112.459 56.4623 112.229 56.5641 112.071 56.7675C111.915 56.9683 111.838 57.2561 111.838 57.6309V60H110.697V54.1012H111.838V56.1933C112.004 55.939 112.195 55.7623 112.412 55.6633C112.632 55.5615 112.862 55.5107 113.103 55.5107C113.373 55.5107 113.618 55.5575 113.838 55.6512C114.06 55.7449 114.242 55.8881 114.384 56.0809C114.504 56.2442 114.578 56.4128 114.604 56.5868C114.631 56.7582 114.645 57.0392 114.645 57.4301ZM116.893 55.6231V60H115.733V55.6231H116.893ZM116.893 54.045V55.1011H115.733V54.045H116.893ZM121.752 58.715C121.723 58.9747 121.587 59.2384 121.347 59.5061C120.972 59.9317 120.447 60.1446 119.772 60.1446C119.216 60.1446 118.724 59.9652 118.299 59.6065C117.873 59.2478 117.66 58.6642 117.66 57.8557C117.66 57.0981 117.852 56.5172 118.235 56.113C118.62 55.7088 119.119 55.5067 119.732 55.5067C120.096 55.5067 120.424 55.5749 120.716 55.7115C121.008 55.848 121.249 56.0635 121.439 56.3579C121.61 56.6176 121.721 56.9188 121.772 57.2614C121.802 57.4622 121.814 57.7513 121.808 58.1288H118.813C118.829 58.5678 118.967 58.8757 119.226 59.0523C119.384 59.1621 119.574 59.217 119.797 59.217C120.032 59.217 120.224 59.1501 120.371 59.0162C120.451 58.9439 120.522 58.8435 120.584 58.715H121.752ZM120.62 57.3739C120.601 57.0714 120.509 56.8425 120.343 56.6872C120.179 56.5293 119.976 56.4503 119.732 56.4503C119.467 56.4503 119.261 56.5333 119.114 56.6993C118.969 56.8652 118.878 57.0901 118.841 57.3739H120.62ZM122.154 55.6231H123.439L124.35 58.8516L125.282 55.6231H126.51L124.932 60H123.724L122.154 55.6231ZM130.907 58.715C130.878 58.9747 130.743 59.2384 130.502 59.5061C130.127 59.9317 129.602 60.1446 128.928 60.1446C128.371 60.1446 127.88 59.9652 127.454 59.6065C127.028 59.2478 126.816 58.6642 126.816 57.8557C126.816 57.0981 127.007 56.5172 127.39 56.113C127.775 55.7088 128.275 55.5067 128.888 55.5067C129.252 55.5067 129.58 55.5749 129.871 55.7115C130.163 55.848 130.404 56.0635 130.594 56.3579C130.766 56.6176 130.877 56.9188 130.927 57.2614C130.957 57.4622 130.969 57.7513 130.964 58.1288H127.968C127.984 58.5678 128.122 58.8757 128.382 59.0523C128.54 59.1621 128.73 59.217 128.952 59.217C129.187 59.217 129.379 59.1501 129.526 59.0162C129.606 58.9439 129.677 58.8435 129.739 58.715H130.907ZM129.775 57.3739C129.756 57.0714 129.664 56.8425 129.498 56.6872C129.335 56.5293 129.131 56.4503 128.888 56.4503C128.623 56.4503 128.416 56.5333 128.269 56.6993C128.125 56.8652 128.034 57.0901 127.996 57.3739H129.775ZM136.031 59.1849V60.0402L135.489 60.0602C134.948 60.079 134.579 59.9853 134.381 59.7791C134.252 59.648 134.188 59.4459 134.188 59.1728V56.4784H133.578V55.6633H134.188V54.4426H135.32V55.6633H136.031V56.4784H135.32V58.7913C135.32 58.9707 135.343 59.0831 135.389 59.1286C135.434 59.1715 135.573 59.1929 135.806 59.1929C135.841 59.1929 135.877 59.1929 135.915 59.1929C135.955 59.1902 135.994 59.1875 136.031 59.1849ZM140.416 56.1772C140.786 56.6404 140.97 57.1878 140.97 57.8196C140.97 58.4621 140.786 59.0122 140.416 59.47C140.047 59.925 139.486 60.1526 138.734 60.1526C137.981 60.1526 137.421 59.925 137.051 59.47C136.682 59.0122 136.497 58.4621 136.497 57.8196C136.497 57.1878 136.682 56.6404 137.051 56.1772C137.421 55.7141 137.981 55.4826 138.734 55.4826C139.486 55.4826 140.047 55.7141 140.416 56.1772ZM138.73 56.4503C138.395 56.4503 138.137 56.5694 137.955 56.8077C137.775 57.0433 137.686 57.3806 137.686 57.8196C137.686 58.2586 137.775 58.5973 137.955 58.8355C138.137 59.0738 138.395 59.1929 138.73 59.1929C139.064 59.1929 139.321 59.0738 139.501 58.8355C139.68 58.5973 139.77 58.2586 139.77 57.8196C139.77 57.3806 139.68 57.0433 139.501 56.8077C139.321 56.5694 139.064 56.4503 138.73 56.4503ZM145.777 54.0892V60H144.664V59.3937C144.501 59.6533 144.315 59.8421 144.106 59.9598C143.898 60.0776 143.638 60.1365 143.327 60.1365C142.816 60.1365 142.385 59.9304 142.034 59.5181C141.686 59.1032 141.512 58.5718 141.512 57.924C141.512 57.1771 141.684 56.5895 142.026 56.1612C142.372 55.7329 142.832 55.5187 143.408 55.5187C143.673 55.5187 143.908 55.5776 144.114 55.6954C144.32 55.8105 144.488 55.9711 144.616 56.1772V54.0892H145.777ZM142.693 57.8397C142.693 58.2439 142.773 58.5665 142.934 58.8074C143.092 59.051 143.333 59.1728 143.657 59.1728C143.981 59.1728 144.227 59.0523 144.395 58.8114C144.564 58.5705 144.648 58.2586 144.648 57.8758C144.648 57.3404 144.513 56.9576 144.243 56.7274C144.077 56.5882 143.884 56.5186 143.665 56.5186C143.33 56.5186 143.084 56.6457 142.926 56.9C142.771 57.1517 142.693 57.4649 142.693 57.8397ZM146.985 56.0969C147.288 55.7115 147.807 55.5187 148.543 55.5187C149.023 55.5187 149.448 55.6137 149.82 55.8038C150.192 55.9939 150.379 56.3526 150.379 56.88V58.8877C150.379 59.0269 150.381 59.1956 150.387 59.3937C150.395 59.5436 150.417 59.6453 150.455 59.6988C150.492 59.7524 150.549 59.7965 150.623 59.8313V60H149.379C149.344 59.9117 149.32 59.8287 149.306 59.751C149.293 59.6734 149.282 59.5851 149.274 59.486C149.116 59.6573 148.934 59.8032 148.728 59.9237C148.482 60.0656 148.203 60.1365 147.893 60.1365C147.497 60.1365 147.169 60.0241 146.909 59.7992C146.652 59.5717 146.524 59.2504 146.524 58.8355C146.524 58.2974 146.731 57.9079 147.146 57.667C147.374 57.5358 147.708 57.4421 148.15 57.3859L148.539 57.3377C148.751 57.311 148.902 57.2775 148.993 57.2373C149.156 57.1677 149.238 57.0593 149.238 56.9121C149.238 56.7327 149.175 56.6096 149.049 56.5427C148.926 56.4731 148.744 56.4383 148.503 56.4383C148.233 56.4383 148.042 56.5052 147.929 56.639C147.849 56.7381 147.795 56.8719 147.768 57.0406H146.664C146.688 56.6578 146.795 56.3432 146.985 56.0969ZM147.837 59.1728C147.944 59.2611 148.075 59.3053 148.23 59.3053C148.477 59.3053 148.703 59.233 148.909 59.0885C149.118 58.9439 149.226 58.6802 149.234 58.2974V57.8718C149.162 57.9173 149.088 57.9548 149.013 57.9842C148.941 58.011 148.841 58.0364 148.712 58.0605L148.455 58.1087C148.214 58.1515 148.042 58.2037 147.937 58.2653C147.76 58.3697 147.672 58.5317 147.672 58.7512C147.672 58.9466 147.727 59.0871 147.837 59.1728ZM153.177 58.8516L154.081 55.6231H155.298L153.796 59.9277C153.507 60.7576 153.278 61.2716 153.109 61.4697C152.94 61.6704 152.603 61.7708 152.097 61.7708C151.995 61.7708 151.914 61.7695 151.852 61.7668C151.791 61.7668 151.698 61.7628 151.575 61.7548V60.8392L151.72 60.8473C151.832 60.8526 151.939 60.8486 152.041 60.8352C152.143 60.8218 152.228 60.7911 152.298 60.7429C152.365 60.6974 152.426 60.6023 152.483 60.4578C152.542 60.3132 152.566 60.2249 152.555 60.1927L150.949 55.6231H152.222L153.177 58.8516ZM158.566 57.8156C158.534 57.9173 158.517 58.0752 158.514 58.2894H157.43C157.446 57.837 157.489 57.5251 157.558 57.3538C157.628 57.1798 157.807 56.9803 158.096 56.7555L158.389 56.5266C158.486 56.4543 158.563 56.3753 158.622 56.2897C158.729 56.1424 158.783 55.9805 158.783 55.8038C158.783 55.6004 158.723 55.4156 158.602 55.2497C158.484 55.081 158.268 54.9967 157.952 54.9967C157.641 54.9967 157.42 55.0998 157.289 55.3059C157.161 55.512 157.096 55.7262 157.096 55.9484H155.936C155.968 55.1854 156.234 54.6447 156.735 54.3261C157.051 54.1227 157.439 54.0209 157.9 54.0209C158.505 54.0209 159.007 54.1655 159.405 54.4546C159.807 54.7437 160.008 55.172 160.008 55.7396C160.008 56.0876 159.921 56.3807 159.747 56.619C159.645 56.7635 159.45 56.9482 159.16 57.1731L158.875 57.3939C158.72 57.5144 158.617 57.655 158.566 57.8156ZM158.598 60H157.402V58.8395H158.598V60Z" fill="#23282D"/>
<rect x="101" y="79" width="115" height="12" rx="6" fill="#E6E9F1"/>
<rect x="101" y="103" width="115" height="12" rx="6" fill="#2D87F1"/>
<rect x="101" y="127" width="115" height="12" rx="6" fill="#E6E9F1"/>
</g>
<defs>
<filter id="filter0_d_227_869" x="39.4863" y="14.7681" width="230.854" height="252.312" filterUnits="userSpaceOnUse" color-interpolation-filters="sRGB">
<feFlood flood-opacity="0" result="BackgroundImageFix"/>
<feColorMatrix in="SourceAlpha" type="matrix" values="0 0 0 0 0 0 0 0 0 0 0 0 0 0 0 0 0 0 127 0" result="hardAlpha"/>
<feOffset dx="8" dy="12"/>
<feGaussianBlur stdDeviation="12"/>
<feColorMatrix type="matrix" values="0 0 0 0 0.689332 0 0 0 0 0.773247 0 0 0 0 0.873944 0 0 0 1 0"/>
<feBlend mode="normal" in2="BackgroundImageFix" result="effect1_dropShadow_227_869"/>
<feBlend mode="normal" in="SourceGraphic" in2="effect1_dropShadow_227_869" result="shape"/>
</filter>
<filter id="filter1_d_227_869" x="54.7031" y="23.0515" width="192.391" height="228.318" filterUnits="userSpaceOnUse" color-interpolation-filters="sRGB">
<feFlood flood-opacity="0" result="BackgroundImageFix"/>
<feColorMatrix in="SourceAlpha" type="matrix" values="0 0 0 0 0 0 0 0 0 0 0 0 0 0 0 0 0 0 127 0" result="hardAlpha"/>
<feOffset dx="8" dy="12"/>
<feGaussianBlur stdDeviation="12"/>
<feColorMatrix type="matrix" values="0 0 0 0 0.689332 0 0 0 0 0.773247 0 0 0 0 0.873944 0 0 0 1 0"/>
<feBlend mode="normal" in2="BackgroundImageFix" result="effect1_dropShadow_227_869"/>
<feBlend mode="normal" in="SourceGraphic" in2="effect1_dropShadow_227_869" result="shape"/>
</filter>
<filter id="filter2_d_227_869" x="69" y="13" width="195" height="193" filterUnits="userSpaceOnUse" color-interpolation-filters="sRGB">
<feFlood flood-opacity="0" result="BackgroundImageFix"/>
<feColorMatrix in="SourceAlpha" type="matrix" values="0 0 0 0 0 0 0 0 0 0 0 0 0 0 0 0 0 0 127 0" result="hardAlpha"/>
<feOffset dx="8" dy="12"/>
<feGaussianBlur stdDeviation="12"/>
<feColorMatrix type="matrix" values="0 0 0 0 0.689332 0 0 0 0 0.773247 0 0 0 0 0.873944 0 0 0 1 0"/>
<feBlend mode="normal" in2="BackgroundImageFix" result="effect1_dropShadow_227_869"/>
<feBlend mode="normal" in="SourceGraphic" in2="effect1_dropShadow_227_869" result="shape"/>
</filter>
<clipPath id="clip0_227_869">
<rect width="320" height="160" fill="white"/>
</clipPath>
</defs>
</svg>
