<svg width="323" height="160" viewBox="0 0 323 160" fill="none" xmlns="http://www.w3.org/2000/svg">
<g clip-path="url(#clip0_227_114)">
<rect width="323" height="160" rx="8" fill="#DEEDFF"/>
<circle cx="159.5" cy="144.5" r="135.25" stroke="#7EB9FF" stroke-width="0.5"/>
<path d="M67.2211 18.1013C67.2854 18.117 67.3497 18.1327 67.4223 18.116C67.9935 18.1523 68.4873 17.6881 68.531 17.1141L68.8043 11.8837C68.848 11.3097 68.3922 10.82 67.821 10.7838C67.2498 10.7475 66.756 11.2117 66.7123 11.7857L66.4307 17.0484C66.4035 17.5577 66.7389 17.9836 67.2211 18.1013Z" fill="#B3C7DE"/>
<path d="M60.7127 21.269C61.0694 21.3451 61.4302 21.251 61.6977 20.966C62.099 20.5385 62.0755 19.8835 61.6548 19.4859L55.624 13.787C55.2032 13.3894 54.5506 13.4212 54.1493 13.8488C53.748 14.2763 53.7715 14.9313 54.1923 15.3289L60.2304 20.9951C60.3706 21.1277 60.5506 21.2345 60.7127 21.269Z" fill="#B3C7DE"/>
<path d="M52.165 27.2376C52.2617 27.2612 52.3583 27.2848 52.4632 27.2759L58.5225 26.9973C59.1114 26.9687 59.5419 26.4879 59.5213 25.8969C59.5007 25.306 59.0274 24.8803 58.4384 24.9088L52.3792 25.1875C51.7902 25.2161 51.3597 25.6969 51.3803 26.2878C51.4018 26.7411 51.7462 27.1354 52.165 27.2376Z" fill="#B3C7DE"/>
<circle cx="159.5" cy="144.5" r="108.25" stroke="#7EB9FF" stroke-width="0.5"/>
<g filter="url(#filter0_d_227_114)">
<path d="M239.706 16.0537C241.328 16.0539 242.643 17.3692 242.643 18.9912V30.0537H250.971C252.593 30.0537 253.908 31.3691 253.908 32.9912V229.773H64.7676V32.9912C64.7676 31.3691 66.083 30.0537 67.7051 30.0537H204.696V18.9912C204.696 17.3692 206.011 16.0539 207.633 16.0537H239.706Z" fill="white"/>
</g>
<path d="M221.408 22.514H226.035C226.19 22.514 226.298 22.5893 226.357 22.7399C226.417 22.8789 226.393 23.0006 226.286 23.1049L223.972 25.3468C223.901 25.4163 223.817 25.451 223.721 25.451C223.626 25.451 223.542 25.4163 223.47 25.3468L221.157 23.1049C221.049 23.0006 221.025 22.8789 221.085 22.7399C221.145 22.5893 221.253 22.514 221.408 22.514Z" fill="#23282D"/>
<g clip-path="url(#clip1_227_114)">
<path d="M66.7676 30.4018H251.768C252.734 30.4018 253.518 31.1853 253.518 32.1518V69.0971H65.0176V32.1518C65.0176 31.1853 65.8011 30.4018 66.7676 30.4018Z" stroke="#E6E9F1" stroke-width="0.5"/>
<path d="M85.2314 46.3479H86.4847L84.823 52.2496H83.6459L82.9332 48.7983L82.725 47.6572L82.5168 48.7983L81.8041 52.2496H80.659L78.9854 46.3479H80.2946L81.0754 49.7272L81.2436 50.6681L81.4157 49.7472L82.0804 46.3479H83.3816L84.0823 49.7272L84.2625 50.6681L84.4427 49.7632L85.2314 46.3479ZM91.0852 49.6871V52.2496H89.92V49.595C89.92 49.3601 89.88 49.1706 89.7999 49.0265C89.6958 48.8236 89.4983 48.7222 89.2073 48.7222C88.9057 48.7222 88.6761 48.8236 88.5187 49.0265C88.3638 49.2267 88.2864 49.5136 88.2864 49.8873V52.2496H87.1493V46.3679H88.2864V48.4539C88.4519 48.2004 88.6428 48.0242 88.859 47.9254C89.0779 47.824 89.3074 47.7733 89.5477 47.7733C89.8173 47.7733 90.0615 47.82 90.2804 47.9134C90.5019 48.0068 90.6834 48.1496 90.8249 48.3418C90.945 48.5046 91.0184 48.6728 91.0451 48.8463C91.0718 49.0171 91.0852 49.2974 91.0852 49.6871ZM92.3184 48.3578C92.62 47.9735 93.1378 47.7813 93.8719 47.7813C94.3497 47.7813 94.7741 47.876 95.1451 48.0656C95.5161 48.2551 95.7017 48.6128 95.7017 49.1386V51.1406C95.7017 51.2794 95.7043 51.4475 95.7097 51.645C95.7177 51.7945 95.7404 51.896 95.7777 51.9493C95.8151 52.0027 95.8712 52.0468 95.9459 52.0815V52.2496H94.7047C94.67 52.1615 94.646 52.0788 94.6326 52.0014C94.6193 51.924 94.6086 51.8359 94.6006 51.7371C94.4431 51.908 94.2616 52.0534 94.0561 52.1736C93.8105 52.315 93.5329 52.3858 93.2232 52.3858C92.8282 52.3858 92.5012 52.2737 92.2423 52.0494C91.986 51.8226 91.8579 51.5022 91.8579 51.0885C91.8579 50.552 92.0648 50.1636 92.4785 49.9234C92.7054 49.7926 93.0391 49.6991 93.4795 49.6431L93.8679 49.595C94.0787 49.5684 94.2296 49.535 94.3203 49.4949C94.4831 49.4255 94.5646 49.3174 94.5646 49.1706C94.5646 48.9918 94.5018 48.869 94.3764 48.8023C94.2536 48.7329 94.0721 48.6982 93.8318 48.6982C93.5622 48.6982 93.3714 48.7649 93.2593 48.8984C93.1792 48.9971 93.1258 49.1306 93.0991 49.2988H91.998C92.0221 48.917 92.1288 48.6034 92.3184 48.3578ZM93.1672 51.4248C93.274 51.5129 93.4048 51.557 93.5596 51.557C93.8051 51.557 94.0307 51.4849 94.2362 51.3407C94.4444 51.1966 94.5525 50.9337 94.5605 50.552V50.1276C94.4885 50.1729 94.4151 50.2103 94.3403 50.2397C94.2683 50.2664 94.1682 50.2917 94.04 50.3157L93.7838 50.3638C93.5436 50.4065 93.3714 50.4586 93.2673 50.5199C93.0911 50.624 93.003 50.7855 93.003 51.0044C93.003 51.1993 93.0577 51.3394 93.1672 51.4248ZM98.7166 51.4368V52.2897L98.1761 52.3097C97.6369 52.3284 97.2685 52.235 97.071 52.0294C96.9429 51.8986 96.8788 51.6971 96.8788 51.4248V48.7382H96.2702V47.9254H96.8788V46.7082H98.0079V47.9254H98.7166V48.7382H98.0079V51.0445C98.0079 51.2233 98.0306 51.3354 98.076 51.3808C98.1214 51.4235 98.2602 51.4448 98.4924 51.4448C98.5271 51.4448 98.5631 51.4448 98.6005 51.4448C98.6405 51.4422 98.6792 51.4395 98.7166 51.4368ZM105.507 49.4509H104.338C104.317 49.2881 104.262 49.1413 104.174 49.0105C104.046 48.8343 103.847 48.7462 103.577 48.7462C103.193 48.7462 102.93 48.9371 102.789 49.3188C102.714 49.5216 102.676 49.7912 102.676 50.1276C102.676 50.4479 102.714 50.7055 102.789 50.9003C102.925 51.2633 103.181 51.4448 103.557 51.4448C103.824 51.4448 104.014 51.3728 104.126 51.2286C104.238 51.0845 104.306 50.8976 104.33 50.6681H105.495C105.469 51.0151 105.343 51.3434 105.119 51.6531C104.761 52.1522 104.231 52.4018 103.529 52.4018C102.827 52.4018 102.311 52.1936 101.98 51.7772C101.649 51.3608 101.483 50.8202 101.483 50.1556C101.483 49.4055 101.666 48.8223 102.032 48.4059C102.398 47.9895 102.902 47.7813 103.545 47.7813C104.093 47.7813 104.54 47.9041 104.887 48.1496C105.236 48.3952 105.443 48.829 105.507 49.4509ZM109.936 48.4379C110.304 48.8997 110.488 49.4456 110.488 50.0755C110.488 50.7161 110.304 51.2647 109.936 51.7211C109.567 52.1749 109.008 52.4018 108.258 52.4018C107.508 52.4018 106.949 52.1749 106.58 51.7211C106.212 51.2647 106.028 50.7161 106.028 50.0755C106.028 49.4456 106.212 48.8997 106.58 48.4379C106.949 47.9761 107.508 47.7452 108.258 47.7452C109.008 47.7452 109.567 47.9761 109.936 48.4379ZM108.254 48.7102C107.92 48.7102 107.663 48.829 107.481 49.0665C107.302 49.3014 107.213 49.6378 107.213 50.0755C107.213 50.5133 107.302 50.8509 107.481 51.0885C107.663 51.3261 107.92 51.4448 108.254 51.4448C108.588 51.4448 108.844 51.3261 109.023 51.0885C109.201 50.8509 109.291 50.5133 109.291 50.0755C109.291 49.6378 109.201 49.3014 109.023 49.0665C108.844 48.829 108.588 48.7102 108.254 48.7102ZM114.108 51.633C114.097 51.6464 114.07 51.6864 114.028 51.7531C113.985 51.8199 113.934 51.8786 113.875 51.9293C113.697 52.0895 113.523 52.1989 113.355 52.2576C113.189 52.3164 112.995 52.3457 112.77 52.3457C112.124 52.3457 111.689 52.1135 111.465 51.649C111.34 51.3928 111.277 51.0151 111.277 50.5159V47.8854H112.446V50.5159C112.446 50.7642 112.475 50.951 112.534 51.0765C112.638 51.298 112.842 51.4088 113.147 51.4088C113.536 51.4088 113.803 51.2513 113.947 50.9364C114.022 50.7655 114.06 50.54 114.06 50.2597V47.8854H115.217V52.2496H114.108V51.633ZM116.346 46.3479H117.487V52.2496H116.346V46.3479ZM122.576 46.3559V52.2496H121.467V51.645C121.304 51.904 121.118 52.0921 120.91 52.2096C120.702 52.327 120.443 52.3858 120.133 52.3858C119.624 52.3858 119.194 52.1802 118.844 51.7692C118.497 51.3554 118.324 50.8256 118.324 50.1796C118.324 49.4349 118.495 48.849 118.836 48.4219C119.181 47.9948 119.64 47.7813 120.214 47.7813C120.478 47.7813 120.713 47.84 120.918 47.9574C121.124 48.0722 121.291 48.2324 121.419 48.4379V46.3559H122.576ZM119.501 50.0955C119.501 50.4986 119.581 50.8202 119.741 51.0605C119.899 51.3034 120.139 51.4248 120.462 51.4248C120.785 51.4248 121.03 51.3047 121.199 51.0645C121.367 50.8242 121.451 50.5133 121.451 50.1316C121.451 49.5977 121.316 49.216 121.046 48.9865C120.881 48.8476 120.689 48.7782 120.47 48.7782C120.136 48.7782 119.891 48.905 119.733 49.1586C119.578 49.4095 119.501 49.7218 119.501 50.0955ZM129.21 52.2496L128.526 49.0705L127.833 52.2496H126.648L125.423 47.8854H126.648L127.329 51.0164L127.957 47.8854H129.114L129.779 51.0284L130.46 47.8854H131.649L130.383 52.2496H129.21ZM136.017 50.9684C135.988 51.2273 135.853 51.4902 135.613 51.7572C135.239 52.1816 134.716 52.3938 134.043 52.3938C133.488 52.3938 132.998 52.2149 132.574 51.8573C132.149 51.4996 131.937 50.9177 131.937 50.1115C131.937 49.3561 132.128 48.7769 132.51 48.3739C132.894 47.9708 133.392 47.7693 134.003 47.7693C134.366 47.7693 134.693 47.8373 134.984 47.9735C135.275 48.1096 135.515 48.3245 135.705 48.6181C135.876 48.877 135.986 49.1773 136.037 49.519C136.066 49.7192 136.078 50.0074 136.073 50.3838H133.086C133.102 50.8216 133.24 51.1285 133.499 51.3047C133.656 51.4142 133.846 51.4689 134.067 51.4689C134.302 51.4689 134.493 51.4021 134.64 51.2687C134.72 51.1966 134.79 51.0965 134.852 50.9684H136.017ZM134.888 49.6311C134.869 49.3295 134.777 49.1012 134.612 48.9464C134.449 48.7889 134.246 48.7102 134.003 48.7102C133.739 48.7102 133.533 48.7929 133.386 48.9584C133.242 49.1239 133.152 49.3481 133.114 49.6311H134.888ZM143.1 46.3559V52.2496H141.991V51.645C141.828 51.904 141.642 52.0921 141.434 52.2096C141.226 52.327 140.967 52.3858 140.658 52.3858C140.148 52.3858 139.718 52.1802 139.368 51.7692C139.021 51.3554 138.848 50.8256 138.848 50.1796C138.848 49.4349 139.019 48.849 139.36 48.4219C139.705 47.9948 140.164 47.7813 140.738 47.7813C141.002 47.7813 141.237 47.84 141.442 47.9574C141.648 48.0722 141.815 48.2324 141.943 48.4379V46.3559H143.1ZM140.025 50.0955C140.025 50.4986 140.105 50.8202 140.265 51.0605C140.423 51.3034 140.663 51.4248 140.986 51.4248C141.309 51.4248 141.554 51.3047 141.723 51.0645C141.891 50.8242 141.975 50.5133 141.975 50.1316C141.975 49.5977 141.84 49.216 141.57 48.9865C141.405 48.8476 141.213 48.7782 140.994 48.7782C140.66 48.7782 140.415 48.905 140.257 49.1586C140.102 49.4095 140.025 49.7218 140.025 50.0955ZM147.78 48.4379C148.149 48.8997 148.333 49.4456 148.333 50.0755C148.333 50.7161 148.149 51.2647 147.78 51.7211C147.412 52.1749 146.853 52.4018 146.103 52.4018C145.353 52.4018 144.794 52.1749 144.425 51.7211C144.057 51.2647 143.873 50.7161 143.873 50.0755C143.873 49.4456 144.057 48.8997 144.425 48.4379C144.794 47.9761 145.353 47.7452 146.103 47.7452C146.853 47.7452 147.412 47.9761 147.78 48.4379ZM146.099 48.7102C145.765 48.7102 145.508 48.829 145.326 49.0665C145.147 49.3014 145.058 49.6378 145.058 50.0755C145.058 50.5133 145.147 50.8509 145.326 51.0885C145.508 51.3261 145.765 51.4448 146.099 51.4448C146.432 51.4448 146.689 51.3261 146.868 51.0885C147.046 50.8509 147.136 50.5133 147.136 50.0755C147.136 49.6378 147.046 49.3014 146.868 49.0665C146.689 48.829 146.432 48.7102 146.099 48.7102ZM153.434 51.4368V52.2897L152.893 52.3097C152.354 52.3284 151.986 52.235 151.788 52.0294C151.66 51.8986 151.596 51.6971 151.596 51.4248V48.7382H150.988V47.9254H151.596V46.7082H152.725V47.9254H153.434V48.7382H152.725V51.0445C152.725 51.2233 152.748 51.3354 152.793 51.3808C152.839 51.4235 152.978 51.4448 153.21 51.4448C153.244 51.4448 153.28 51.4448 153.318 51.4448C153.358 51.4422 153.397 51.4395 153.434 51.4368ZM157.806 48.4379C158.175 48.8997 158.359 49.4456 158.359 50.0755C158.359 50.7161 158.175 51.2647 157.806 51.7211C157.438 52.1749 156.879 52.4018 156.129 52.4018C155.379 52.4018 154.819 52.1749 154.451 51.7211C154.083 51.2647 153.898 50.7161 153.898 50.0755C153.898 49.4456 154.083 48.8997 154.451 48.4379C154.819 47.9761 155.379 47.7452 156.129 47.7452C156.879 47.7452 157.438 47.9761 157.806 48.4379ZM156.125 48.7102C155.791 48.7102 155.533 48.829 155.352 49.0665C155.173 49.3014 155.084 49.6378 155.084 50.0755C155.084 50.5133 155.173 50.8509 155.352 51.0885C155.533 51.3261 155.791 51.4448 156.125 51.4448C156.458 51.4448 156.715 51.3261 156.893 51.0885C157.072 50.8509 157.162 50.5133 157.162 50.0755C157.162 49.6378 157.072 49.3014 156.893 49.0665C156.715 48.829 156.458 48.7102 156.125 48.7102ZM163.912 49.0865C163.816 48.8757 163.628 48.7702 163.348 48.7702C163.022 48.7702 162.803 48.8757 162.691 49.0865C162.63 49.2067 162.599 49.3855 162.599 49.6231V52.2496H161.442V47.8934H162.551V48.53C162.692 48.3031 162.826 48.1416 162.951 48.0455C163.173 47.8747 163.46 47.7893 163.812 47.7893C164.146 47.7893 164.415 47.8627 164.621 48.0095C164.786 48.1456 164.912 48.3205 164.997 48.534C165.147 48.2778 165.332 48.0896 165.554 47.9695C165.789 47.8493 166.05 47.7893 166.339 47.7893C166.531 47.7893 166.72 47.8267 166.907 47.9014C167.094 47.9761 167.263 48.1069 167.416 48.2938C167.538 48.4459 167.621 48.6328 167.664 48.8543C167.691 49.0011 167.704 49.216 167.704 49.499L167.696 52.2496H166.527V49.4709C166.527 49.3054 166.5 49.1693 166.447 49.0625C166.345 48.8597 166.158 48.7582 165.886 48.7582C165.571 48.7582 165.354 48.889 165.233 49.1506C165.172 49.2894 165.141 49.4562 165.141 49.6511V52.2496H163.992V49.6511C163.992 49.3922 163.966 49.204 163.912 49.0865ZM168.921 48.3578C169.223 47.9735 169.741 47.7813 170.475 47.7813C170.952 47.7813 171.377 47.876 171.748 48.0656C172.119 48.2551 172.304 48.6128 172.304 49.1386V51.1406C172.304 51.2794 172.307 51.4475 172.312 51.645C172.32 51.7945 172.343 51.896 172.38 51.9493C172.418 52.0027 172.474 52.0468 172.549 52.0815V52.2496H171.307C171.273 52.1615 171.249 52.0788 171.235 52.0014C171.222 51.924 171.211 51.8359 171.203 51.7371C171.046 51.908 170.864 52.0534 170.659 52.1736C170.413 52.315 170.136 52.3858 169.826 52.3858C169.431 52.3858 169.104 52.2737 168.845 52.0494C168.589 51.8226 168.461 51.5022 168.461 51.0885C168.461 50.552 168.668 50.1636 169.081 49.9234C169.308 49.7926 169.642 49.6991 170.082 49.6431L170.471 49.595C170.681 49.5684 170.832 49.535 170.923 49.4949C171.086 49.4255 171.167 49.3174 171.167 49.1706C171.167 48.9918 171.105 48.869 170.979 48.8023C170.856 48.7329 170.675 48.6982 170.435 48.6982C170.165 48.6982 169.974 48.7649 169.862 48.8984C169.782 48.9971 169.729 49.1306 169.702 49.2988H168.601C168.625 48.917 168.732 48.6034 168.921 48.3578ZM169.77 51.4248C169.877 51.5129 170.007 51.557 170.162 51.557C170.408 51.557 170.633 51.4849 170.839 51.3407C171.047 51.1966 171.155 50.9337 171.163 50.552V50.1276C171.091 50.1729 171.018 50.2103 170.943 50.2397C170.871 50.2664 170.771 50.2917 170.643 50.3157L170.387 50.3638C170.146 50.4065 169.974 50.4586 169.87 50.5199C169.694 50.624 169.606 50.7855 169.606 51.0044C169.606 51.1993 169.66 51.3394 169.77 51.4248ZM177.325 52.2496H175.948L174.903 50.3838L174.43 50.8763V52.2496H173.309V46.3679H174.43V49.547L175.852 47.9054H177.265L175.74 49.575L177.325 52.2496ZM181.621 50.9684C181.592 51.2273 181.457 51.4902 181.217 51.7572C180.843 52.1816 180.32 52.3938 179.648 52.3938C179.092 52.3938 178.603 52.2149 178.178 51.8573C177.754 51.4996 177.542 50.9177 177.542 50.1115C177.542 49.3561 177.732 48.7769 178.114 48.3739C178.498 47.9708 178.996 47.7693 179.608 47.7693C179.971 47.7693 180.298 47.8373 180.588 47.9735C180.879 48.1096 181.12 48.3245 181.309 48.6181C181.48 48.877 181.591 49.1773 181.642 49.519C181.671 49.7192 181.683 50.0074 181.678 50.3838H178.691C178.707 50.8216 178.844 51.1285 179.103 51.3047C179.261 51.4142 179.45 51.4689 179.672 51.4689C179.906 51.4689 180.097 51.4021 180.244 51.2687C180.324 51.1966 180.395 51.0965 180.456 50.9684H181.621ZM180.492 49.6311C180.474 49.3295 180.382 49.1012 180.216 48.9464C180.053 48.7889 179.85 48.7102 179.608 48.7102C179.343 48.7102 179.138 48.7929 178.991 48.9584C178.847 49.1239 178.756 49.3481 178.719 49.6311H180.492ZM186.506 51.1045L187.407 47.8854H188.62L187.123 52.1776C186.835 53.005 186.606 53.5175 186.438 53.7151C186.27 53.9153 185.934 54.0154 185.429 54.0154C185.328 54.0154 185.246 54.014 185.185 54.0114C185.124 54.0114 185.031 54.0073 184.909 53.9993V53.0865L185.053 53.0945C185.165 53.0998 185.272 53.0958 185.373 53.0824C185.475 53.0691 185.56 53.0384 185.629 52.9904C185.696 52.945 185.758 52.8502 185.814 52.7061C185.872 52.5619 185.896 52.4739 185.886 52.4418L184.284 47.8854H185.553L186.506 51.1045ZM192.937 48.4379C193.305 48.8997 193.489 49.4456 193.489 50.0755C193.489 50.7161 193.305 51.2647 192.937 51.7211C192.568 52.1749 192.009 52.4018 191.259 52.4018C190.509 52.4018 189.95 52.1749 189.581 51.7211C189.213 51.2647 189.029 50.7161 189.029 50.0755C189.029 49.4456 189.213 48.8997 189.581 48.4379C189.95 47.9761 190.509 47.7452 191.259 47.7452C192.009 47.7452 192.568 47.9761 192.937 48.4379ZM191.255 48.7102C190.921 48.7102 190.664 48.829 190.482 49.0665C190.303 49.3014 190.214 49.6378 190.214 50.0755C190.214 50.5133 190.303 50.8509 190.482 51.0885C190.664 51.3261 190.921 51.4448 191.255 51.4448C191.589 51.4448 191.845 51.3261 192.024 51.0885C192.202 50.8509 192.292 50.5133 192.292 50.0755C192.292 49.6378 192.202 49.3014 192.024 49.0665C191.845 48.829 191.589 48.7102 191.255 48.7102ZM197.109 51.633C197.098 51.6464 197.071 51.6864 197.029 51.7531C196.986 51.8199 196.935 51.8786 196.876 51.9293C196.698 52.0895 196.524 52.1989 196.356 52.2576C196.19 52.3164 195.996 52.3457 195.771 52.3457C195.125 52.3457 194.69 52.1135 194.466 51.649C194.341 51.3928 194.278 51.0151 194.278 50.5159V47.8854H195.447V50.5159C195.447 50.7642 195.476 50.951 195.535 51.0765C195.639 51.298 195.843 51.4088 196.148 51.4088C196.537 51.4088 196.804 51.2513 196.948 50.9364C197.023 50.7655 197.061 50.54 197.061 50.2597V47.8854H198.218V52.2496H197.109V51.633ZM205.549 49.6871V52.2496H204.384V49.595C204.384 49.3601 204.344 49.1706 204.264 49.0265C204.159 48.8236 203.962 48.7222 203.671 48.7222C203.369 48.7222 203.14 48.8236 202.982 49.0265C202.828 49.2267 202.75 49.5136 202.75 49.8873V52.2496H201.613V46.3679H202.75V48.4539C202.916 48.2004 203.106 48.0242 203.323 47.9254C203.542 47.824 203.771 47.7733 204.011 47.7733C204.281 47.7733 204.525 47.82 204.744 47.9134C204.966 48.0068 205.147 48.1496 205.289 48.3418C205.409 48.5046 205.482 48.6728 205.509 48.8463C205.535 49.0171 205.549 49.2974 205.549 49.6871ZM206.782 48.3578C207.084 47.9735 207.601 47.7813 208.336 47.7813C208.813 47.7813 209.238 47.876 209.609 48.0656C209.98 48.2551 210.165 48.6128 210.165 49.1386V51.1406C210.165 51.2794 210.168 51.4475 210.173 51.645C210.181 51.7945 210.204 51.896 210.241 51.9493C210.279 52.0027 210.335 52.0468 210.41 52.0815V52.2496H209.168C209.134 52.1615 209.11 52.0788 209.096 52.0014C209.083 51.924 209.072 51.8359 209.064 51.7371C208.907 51.908 208.725 52.0534 208.52 52.1736C208.274 52.315 207.997 52.3858 207.687 52.3858C207.292 52.3858 206.965 52.2737 206.706 52.0494C206.45 51.8226 206.322 51.5022 206.322 51.0885C206.322 50.552 206.528 50.1636 206.942 49.9234C207.169 49.7926 207.503 49.6991 207.943 49.6431L208.332 49.595C208.542 49.5684 208.693 49.535 208.784 49.4949C208.947 49.4255 209.028 49.3174 209.028 49.1706C209.028 48.9918 208.965 48.869 208.84 48.8023C208.717 48.7329 208.536 48.6982 208.296 48.6982C208.026 48.6982 207.835 48.7649 207.723 48.8984C207.643 48.9971 207.589 49.1306 207.563 49.2988H206.462C206.486 48.917 206.593 48.6034 206.782 48.3578ZM207.631 51.4248C207.738 51.5129 207.868 51.557 208.023 51.557C208.269 51.557 208.494 51.4849 208.7 51.3407C208.908 51.1966 209.016 50.9337 209.024 50.552V50.1276C208.952 50.1729 208.879 50.2103 208.804 50.2397C208.732 50.2664 208.632 50.2917 208.504 50.3157L208.247 50.3638C208.007 50.4065 207.835 50.4586 207.731 50.5199C207.555 50.624 207.467 50.7855 207.467 51.0044C207.467 51.1993 207.521 51.3394 207.631 51.4248ZM214.838 48.3538C215.19 48.7302 215.366 49.2827 215.366 50.0115C215.366 50.7802 215.193 51.3661 214.846 51.7692C214.502 52.1722 214.057 52.3738 213.513 52.3738C213.166 52.3738 212.877 52.287 212.648 52.1135C212.522 52.0174 212.4 51.8773 212.279 51.6931V53.9673H211.15V47.8854H212.243V48.53C212.366 48.3405 212.497 48.191 212.636 48.0816C212.889 47.8867 213.191 47.7893 213.541 47.7893C214.05 47.7893 214.483 47.9775 214.838 48.3538ZM214.189 50.0675C214.189 49.7312 214.112 49.4336 213.957 49.1746C213.805 48.9157 213.557 48.7863 213.212 48.7863C212.799 48.7863 212.514 48.9824 212.359 49.3748C212.279 49.583 212.239 49.8473 212.239 50.1676C212.239 50.6748 212.374 51.0311 212.644 51.2366C212.804 51.3568 212.993 51.4168 213.212 51.4168C213.53 51.4168 213.772 51.294 213.937 51.0485C214.105 50.8029 214.189 50.4759 214.189 50.0675ZM219.851 48.3538C220.203 48.7302 220.379 49.2827 220.379 50.0115C220.379 50.7802 220.206 51.3661 219.859 51.7692C219.514 52.1722 219.07 52.3738 218.525 52.3738C218.178 52.3738 217.89 52.287 217.661 52.1135C217.535 52.0174 217.412 51.8773 217.292 51.6931V53.9673H216.163V47.8854H217.256V48.53C217.379 48.3405 217.51 48.191 217.649 48.0816C217.902 47.8867 218.204 47.7893 218.554 47.7893C219.063 47.7893 219.496 47.9775 219.851 48.3538ZM219.202 50.0675C219.202 49.7312 219.125 49.4336 218.97 49.1746C218.818 48.9157 218.57 48.7863 218.225 48.7863C217.811 48.7863 217.527 48.9824 217.372 49.3748C217.292 49.583 217.252 49.8473 217.252 50.1676C217.252 50.6748 217.387 51.0311 217.657 51.2366C217.817 51.3568 218.006 51.4168 218.225 51.4168C218.543 51.4168 218.784 51.294 218.95 51.0485C219.118 50.8029 219.202 50.4759 219.202 50.0675ZM222.381 47.8854V52.2496H221.224V47.8854H222.381ZM222.381 46.3118V47.3649H221.224V46.3118H222.381ZM227.226 50.9684C227.197 51.2273 227.062 51.4902 226.822 51.7572C226.448 52.1816 225.925 52.3938 225.252 52.3938C224.697 52.3938 224.207 52.2149 223.783 51.8573C223.358 51.4996 223.146 50.9177 223.146 50.1115C223.146 49.3561 223.337 48.7769 223.719 48.3739C224.103 47.9708 224.601 47.7693 225.212 47.7693C225.575 47.7693 225.902 47.8373 226.193 47.9735C226.484 48.1096 226.724 48.3245 226.914 48.6181C227.085 48.877 227.195 49.1773 227.246 49.519C227.275 49.7192 227.287 50.0074 227.282 50.3838H224.295C224.311 50.8216 224.449 51.1285 224.708 51.3047C224.865 51.4142 225.055 51.4689 225.276 51.4689C225.511 51.4689 225.702 51.4021 225.849 51.2687C225.929 51.1966 225.999 51.0965 226.061 50.9684H227.226ZM226.097 49.6311C226.078 49.3295 225.986 49.1012 225.821 48.9464C225.658 48.7889 225.455 48.7102 225.212 48.7102C224.948 48.7102 224.742 48.7929 224.595 48.9584C224.451 49.1239 224.361 49.3481 224.323 49.6311H226.097ZM230.249 48.9384C229.79 48.9384 229.482 49.0879 229.324 49.3868C229.236 49.555 229.192 49.8139 229.192 50.1636V52.2496H228.043V47.8854H229.132V48.6461C229.308 48.3552 229.461 48.1563 229.592 48.0495C229.806 47.8707 230.083 47.7813 230.425 47.7813C230.446 47.7813 230.464 47.7826 230.477 47.7853C230.493 47.7853 230.527 47.7866 230.577 47.7893V48.9584C230.505 48.9504 230.441 48.9451 230.385 48.9424C230.329 48.9397 230.284 48.9384 230.249 48.9384ZM233.832 50.0715C233.8 50.1729 233.783 50.3304 233.78 50.544H232.699C232.715 50.0929 232.758 49.7819 232.827 49.6111C232.897 49.4376 233.076 49.2387 233.364 49.0145L233.656 48.7863C233.752 48.7142 233.83 48.6354 233.888 48.55C233.995 48.4032 234.049 48.2417 234.049 48.0656C234.049 47.8627 233.989 47.6785 233.868 47.513C233.751 47.3448 233.535 47.2608 233.22 47.2608C232.91 47.2608 232.69 47.3635 232.559 47.5691C232.431 47.7746 232.367 47.9881 232.367 48.2097H231.21C231.242 47.449 231.507 46.9098 232.007 46.5921C232.322 46.3892 232.709 46.2878 233.168 46.2878C233.771 46.2878 234.272 46.432 234.669 46.7202C235.07 47.0085 235.27 47.4356 235.27 48.0015C235.27 48.3485 235.183 48.6408 235.01 48.8783C234.908 49.0225 234.713 49.2067 234.425 49.4309L234.141 49.6511C233.986 49.7712 233.883 49.9114 233.832 50.0715ZM233.864 52.2496H232.671V51.0925H233.864V52.2496Z" fill="#23282D"/>
<rect x="64.4739" y="69.0538" width="189.587" height="137.482" fill="#AFC6E1"/>
<rect x="64.4739" y="69.0538" width="189.587" height="137.482" stroke="#CFDBE8" stroke-width="0.58741"/>
<g clip-path="url(#clip2_227_114)">
<rect x="81.0613" y="83.739" width="156.413" height="92.4126" rx="1.46852" fill="white" stroke="#CFDBE8" stroke-width="0.58741"/>
</g>
</g>
<rect x="89.4258" y="94.1797" width="129.996" height="4.19641" rx="2.0982" fill="#B3C7DE"/>
<rect x="89.4258" y="104.84" width="121.445" height="4.19641" rx="2.0982" fill="#B3C7DE"/>
<g filter="url(#filter1_d_227_114)">
<rect x="38" y="108.691" width="178.535" height="35.819" rx="4" fill="white"/>
<g clip-path="url(#clip3_227_114)">
<path fill-rule="evenodd" clip-rule="evenodd" d="M61.2261 121.004H52.8313C52.0586 121.004 51.4321 121.63 51.4321 122.403V129.041C51.4321 129.648 51.9247 130.141 52.5323 130.141H52.6052C53.1725 130.141 53.6324 130.601 53.6324 131.168C53.6324 132.069 54.7089 132.533 55.3642 131.916L56.843 130.522C57.1026 130.277 57.4459 130.141 57.8027 130.141H61.2261C61.9988 130.141 62.6253 129.514 62.6253 128.742V122.403C62.6253 121.63 61.9988 121.004 61.2261 121.004ZM56.0957 123.112C56.0957 122.803 56.3463 122.553 56.6554 122.553H57.4016C57.7107 122.553 57.9612 122.803 57.9612 123.112V127.568C57.9612 127.877 57.7107 128.128 57.4016 128.128H56.6554C56.3463 128.128 56.0957 127.877 56.0957 127.568V123.112ZM53.6084 124.971C53.6084 124.661 53.8589 124.411 54.168 124.411H54.9142C55.2233 124.411 55.4739 124.661 55.4739 124.971V127.568C55.4739 127.877 55.2233 128.128 54.9142 128.128H54.168C53.8589 128.128 53.6084 127.877 53.6084 127.568V124.971ZM59.1429 125.65C58.8338 125.65 58.5832 125.9 58.5832 126.209V127.568C58.5832 127.877 58.8338 128.127 59.1429 128.127H59.8891C60.1982 128.127 60.4487 127.877 60.4487 127.568V126.209C60.4487 125.9 60.1982 125.65 59.8891 125.65H59.1429Z" fill="#AAAAAA"/>
<path fill-rule="evenodd" clip-rule="evenodd" d="M93.7274 123.333C93.6717 123.273 93.599 123.243 93.5091 123.243C93.4192 123.243 93.3464 123.273 93.2908 123.333C93.2351 123.388 93.2073 123.461 93.2073 123.551V125.06C93.0875 124.91 92.9313 124.788 92.7386 124.694C92.546 124.599 92.3363 124.552 92.1094 124.552C91.827 124.552 91.568 124.627 91.3326 124.777C91.0972 124.927 90.911 125.137 90.774 125.406C90.6413 125.672 90.575 125.971 90.575 126.305C90.575 126.639 90.6435 126.941 90.7804 127.21C90.9174 127.476 91.1036 127.683 91.339 127.833C91.5744 127.983 91.8376 128.058 92.1287 128.058C92.3513 128.058 92.5589 128.004 92.7515 127.897C92.9484 127.79 93.1003 127.66 93.2073 127.506V127.686C93.2073 127.775 93.2351 127.85 93.2908 127.91C93.3464 127.966 93.4192 127.994 93.5091 127.994C93.599 127.994 93.6717 127.964 93.7274 127.904C93.7873 127.844 93.8173 127.771 93.8173 127.686V123.551C93.8173 123.461 93.7873 123.388 93.7274 123.333ZM92.7322 127.339C92.5781 127.442 92.4005 127.493 92.1993 127.493C91.9982 127.493 91.8184 127.442 91.66 127.339C91.5059 127.236 91.3839 127.095 91.2941 126.915C91.2085 126.735 91.1657 126.532 91.1657 126.305C91.1657 126.083 91.2085 125.881 91.2941 125.702C91.3839 125.518 91.5059 125.374 91.66 125.271C91.8184 125.169 91.9982 125.117 92.1993 125.117C92.4005 125.117 92.5781 125.169 92.7322 125.271C92.8906 125.374 93.0126 125.518 93.0982 125.702C93.1881 125.881 93.233 126.083 93.233 126.305C93.233 126.532 93.1881 126.735 93.0982 126.915C93.0126 127.095 92.8906 127.236 92.7322 127.339Z" fill="#AAAAAA"/>
<path d="M68.8203 123.583C68.7689 123.523 68.6983 123.493 68.6084 123.493C68.5185 123.493 68.4479 123.523 68.3965 123.583C68.3452 123.639 68.3195 123.711 68.3195 123.801V126.267C68.3195 126.489 68.266 126.69 68.159 126.87C68.0563 127.046 67.9171 127.183 67.7417 127.281C67.5662 127.379 67.3757 127.429 67.1702 127.429C66.9734 127.429 66.7893 127.379 66.6181 127.281C66.4469 127.183 66.3099 127.046 66.2072 126.87C66.1045 126.69 66.0531 126.489 66.0531 126.267V123.801C66.0531 123.716 66.021 123.643 65.9568 123.583C65.8969 123.523 65.8263 123.493 65.7449 123.493C65.6508 123.493 65.5737 123.523 65.5138 123.583C65.4539 123.639 65.4239 123.711 65.4239 123.801V126.267C65.4239 126.605 65.4988 126.909 65.6486 127.178C65.7984 127.448 66.006 127.66 66.2714 127.814C66.5368 127.964 66.8364 128.039 67.1702 128.039C67.4998 128.039 67.7952 127.964 68.0563 127.814C68.3216 127.66 68.5292 127.448 68.679 127.178C68.8288 126.909 68.9037 126.605 68.9037 126.267V123.801C68.9037 123.711 68.8759 123.639 68.8203 123.583Z" fill="#AAAAAA"/>
<path d="M69.6421 127.294C69.6421 127.35 69.6614 127.407 69.6999 127.467C69.8583 127.673 70.0509 127.823 70.2777 127.917C70.5089 128.011 70.7593 128.058 71.0289 128.058C71.2387 128.058 71.4356 128.019 71.6196 127.942C71.8079 127.861 71.9599 127.748 72.0754 127.602C72.191 127.452 72.2488 127.277 72.2488 127.076C72.2488 126.857 72.1974 126.682 72.0947 126.549C71.992 126.412 71.8657 126.309 71.7159 126.241C71.5661 126.172 71.3778 126.108 71.1509 126.048C70.8898 125.98 70.6951 125.909 70.5667 125.836C70.4425 125.764 70.3783 125.652 70.3741 125.503C70.3741 125.344 70.4297 125.233 70.541 125.169C70.6565 125.1 70.7957 125.066 70.9583 125.066C71.1167 125.066 71.2601 125.094 71.3885 125.149C71.5212 125.205 71.6324 125.284 71.7223 125.387C71.7694 125.438 71.8315 125.464 71.9085 125.464C71.9727 125.464 72.0262 125.445 72.069 125.406C72.1375 125.342 72.1717 125.276 72.1717 125.207C72.1717 125.143 72.1461 125.081 72.0947 125.021C71.9663 124.863 71.7994 124.745 71.5939 124.668C71.3927 124.591 71.1894 124.552 70.984 124.552C70.77 124.552 70.5709 124.593 70.3869 124.674C70.2071 124.756 70.0616 124.869 69.9503 125.015C69.8433 125.16 69.7898 125.329 69.7898 125.522C69.7898 125.74 69.8433 125.918 69.9503 126.055C70.0616 126.187 70.1964 126.29 70.3548 126.363C70.5132 126.431 70.7122 126.498 70.9519 126.562C71.1959 126.626 71.3799 126.697 71.504 126.774C71.6324 126.851 71.6966 126.962 71.6966 127.108C71.6966 127.266 71.6346 127.382 71.5105 127.454C71.3863 127.523 71.2429 127.559 71.0803 127.564C70.8748 127.564 70.6972 127.527 70.5474 127.454C70.4019 127.382 70.2649 127.272 70.1365 127.127C70.0723 127.063 70.0017 127.031 69.9246 127.031C69.869 127.031 69.8198 127.046 69.777 127.076C69.6871 127.136 69.6421 127.208 69.6421 127.294Z" fill="#AAAAAA"/>
<path fill-rule="evenodd" clip-rule="evenodd" d="M75.9056 126.183C75.9013 126.26 75.8692 126.327 75.8093 126.382C75.7494 126.434 75.6787 126.459 75.5974 126.459H73.3374C73.3674 126.772 73.4851 127.022 73.6906 127.21C73.9003 127.399 74.155 127.493 74.4546 127.493C74.66 127.493 74.827 127.463 74.9554 127.403C75.0838 127.343 75.1972 127.266 75.2957 127.172C75.3599 127.133 75.4219 127.114 75.4818 127.114C75.5546 127.114 75.6145 127.14 75.6616 127.191C75.713 127.243 75.7387 127.302 75.7387 127.371C75.7387 127.461 75.6959 127.542 75.6102 127.615C75.4861 127.739 75.3213 127.844 75.1159 127.93C74.9104 128.015 74.7007 128.058 74.4867 128.058C74.14 128.058 73.834 127.985 73.5686 127.84C73.3075 127.694 73.1042 127.491 72.9586 127.23C72.8174 126.969 72.7468 126.673 72.7468 126.344C72.7468 125.984 72.8195 125.67 72.9651 125.4C73.1149 125.126 73.3096 124.916 73.5493 124.771C73.7933 124.625 74.0544 124.552 74.3326 124.552C74.6065 124.552 74.8633 124.623 75.103 124.764C75.3427 124.906 75.5353 125.1 75.6809 125.349C75.8264 125.597 75.9013 125.875 75.9056 126.183ZM74.3326 125.117C74.0929 125.117 73.8853 125.186 73.7098 125.323C73.5343 125.456 73.4188 125.663 73.3631 125.946H75.2571V125.894C75.2357 125.667 75.133 125.481 74.949 125.336C74.7692 125.19 74.5637 125.117 74.3326 125.117Z" fill="#AAAAAA"/>
<path d="M78.5785 124.642C78.4971 124.582 78.4008 124.552 78.2895 124.552C78.0498 124.557 77.8358 124.625 77.6475 124.758C77.4592 124.886 77.3179 125.055 77.2238 125.265V124.938C77.2238 124.852 77.1938 124.779 77.1339 124.719C77.0782 124.659 77.0055 124.629 76.9156 124.629C76.83 124.629 76.7572 124.659 76.6973 124.719C76.6417 124.779 76.6138 124.852 76.6138 124.938V127.686C76.6138 127.775 76.6417 127.85 76.6973 127.91C76.7529 127.966 76.8257 127.994 76.9156 127.994C77.0055 127.994 77.0782 127.964 77.1339 127.904C77.1938 127.844 77.2238 127.771 77.2238 127.686V126.138C77.2238 125.941 77.2623 125.764 77.3393 125.605C77.4207 125.443 77.5234 125.316 77.6475 125.227C77.7759 125.132 77.9065 125.085 78.0391 125.085C78.0905 125.085 78.1611 125.1 78.251 125.13C78.3281 125.156 78.3858 125.169 78.4244 125.169C78.5014 125.169 78.5656 125.143 78.617 125.092C78.6726 125.036 78.7004 124.957 78.7004 124.854C78.7004 124.769 78.6598 124.698 78.5785 124.642Z" fill="#AAAAAA"/>
<path d="M80.6335 124.09V125.419H82.2129C82.3028 125.419 82.3756 125.447 82.4312 125.503C82.4911 125.558 82.5211 125.631 82.5211 125.721C82.5211 125.798 82.4911 125.864 82.4312 125.92C82.3756 125.976 82.3028 126.003 82.2129 126.003H80.6335V127.686C80.6335 127.771 80.6014 127.844 80.5372 127.904C80.4773 127.964 80.4045 127.994 80.3189 127.994C80.229 127.994 80.1541 127.964 80.0942 127.904C80.0343 127.844 80.0043 127.771 80.0043 127.686V123.808C80.0043 123.722 80.0343 123.649 80.0942 123.589C80.1541 123.529 80.2269 123.499 80.3125 123.499H82.5018C82.5917 123.499 82.6645 123.527 82.7201 123.583C82.7801 123.639 82.81 123.711 82.81 123.801C82.81 123.878 82.7801 123.947 82.7201 124.007C82.6602 124.062 82.5875 124.09 82.5018 124.09H80.6335Z" fill="#AAAAAA"/>
<path fill-rule="evenodd" clip-rule="evenodd" d="M86.3143 126.382C86.3742 126.327 86.4063 126.26 86.4106 126.183C86.4063 125.875 86.3314 125.597 86.1859 125.349C86.0403 125.1 85.8477 124.906 85.608 124.764C85.3683 124.623 85.1115 124.552 84.8376 124.552C84.5594 124.552 84.2983 124.625 84.0543 124.771C83.8146 124.916 83.6199 125.126 83.4701 125.4C83.3245 125.67 83.2518 125.984 83.2518 126.344C83.2518 126.673 83.3224 126.969 83.4636 127.23C83.6092 127.491 83.8125 127.694 84.0736 127.84C84.339 127.985 84.645 128.058 84.9917 128.058C85.2057 128.058 85.4154 128.015 85.6209 127.93C85.8263 127.844 85.9911 127.739 86.1152 127.615C86.2009 127.542 86.2437 127.461 86.2437 127.371C86.2437 127.302 86.218 127.243 86.1666 127.191C86.1195 127.14 86.0596 127.114 85.9868 127.114C85.9269 127.114 85.8649 127.133 85.8006 127.172C85.7022 127.266 85.5888 127.343 85.4604 127.403C85.332 127.463 85.165 127.493 84.9596 127.493C84.66 127.493 84.4053 127.399 84.1956 127.21C83.9901 127.022 83.8724 126.772 83.8424 126.459H86.1024C86.1837 126.459 86.2544 126.434 86.3143 126.382ZM84.2148 125.323C84.3903 125.186 84.5979 125.117 84.8376 125.117C85.0687 125.117 85.2742 125.19 85.454 125.336C85.638 125.481 85.7407 125.667 85.7621 125.894V125.946H83.8681C83.9238 125.663 84.0393 125.456 84.2148 125.323Z" fill="#AAAAAA"/>
<path fill-rule="evenodd" clip-rule="evenodd" d="M90.0722 126.183C90.0679 126.26 90.0358 126.327 89.9759 126.382C89.916 126.434 89.8453 126.459 89.764 126.459H87.504C87.534 126.772 87.6517 127.022 87.8572 127.21C88.0669 127.399 88.3216 127.493 88.6212 127.493C88.8266 127.493 88.9936 127.463 89.122 127.403C89.2504 127.343 89.3638 127.266 89.4623 127.172C89.5265 127.133 89.5885 127.114 89.6484 127.114C89.7212 127.114 89.7811 127.14 89.8282 127.191C89.8796 127.243 89.9053 127.302 89.9053 127.371C89.9053 127.461 89.8625 127.542 89.7769 127.615C89.6527 127.739 89.4879 127.844 89.2825 127.93C89.077 128.015 88.8673 128.058 88.6533 128.058C88.3066 128.058 88.0006 127.985 87.7352 127.84C87.4741 127.694 87.2708 127.491 87.1252 127.23C86.984 126.969 86.9134 126.673 86.9134 126.344C86.9134 125.984 86.9861 125.67 87.1317 125.4C87.2815 125.126 87.4762 124.916 87.7159 124.771C87.9599 124.625 88.221 124.552 88.4992 124.552C88.7731 124.552 89.03 124.623 89.2696 124.764C89.5093 124.906 89.702 125.1 89.8475 125.349C89.993 125.597 90.0679 125.875 90.0722 126.183ZM88.4992 125.117C88.2595 125.117 88.0519 125.186 87.8764 125.323C87.7009 125.456 87.5854 125.663 87.5297 125.946H89.4237V125.894C89.4023 125.667 89.2996 125.481 89.1156 125.336C88.9358 125.19 88.7303 125.117 88.4992 125.117Z" fill="#AAAAAA"/>
<path fill-rule="evenodd" clip-rule="evenodd" d="M96.4127 124.552C96.7038 124.552 96.967 124.627 97.2024 124.777C97.4379 124.927 97.6219 125.135 97.7546 125.4C97.8916 125.665 97.96 125.965 97.96 126.299C97.96 126.633 97.8916 126.934 97.7546 127.204C97.6219 127.474 97.4379 127.683 97.2024 127.833C96.967 127.983 96.7081 128.058 96.4256 128.058C96.203 128.058 95.9954 128.009 95.8028 127.91C95.6102 127.812 95.454 127.69 95.3341 127.544V127.73C95.3341 127.816 95.3042 127.889 95.2442 127.949C95.1886 128.009 95.1158 128.039 95.0259 128.039C94.9403 128.039 94.8676 128.011 94.8076 127.955C94.752 127.895 94.7242 127.82 94.7242 127.73V123.551C94.7242 123.461 94.752 123.388 94.8076 123.333C94.8633 123.273 94.9361 123.243 95.0259 123.243C95.1158 123.243 95.1886 123.273 95.2442 123.333C95.3042 123.392 95.3341 123.465 95.3341 123.551V125.117C95.4368 124.963 95.5867 124.831 95.7835 124.719C95.9804 124.608 96.1902 124.552 96.4127 124.552ZM96.3421 127.493C96.539 127.493 96.7166 127.442 96.875 127.339C97.0334 127.232 97.1554 127.088 97.241 126.909C97.3308 126.725 97.3758 126.521 97.3758 126.299C97.3758 126.076 97.3308 125.875 97.241 125.695C97.1554 125.515 97.0334 125.374 96.875 125.271C96.7166 125.169 96.539 125.117 96.3421 125.117C96.1409 125.117 95.9612 125.169 95.8028 125.271C95.6444 125.374 95.5203 125.515 95.4304 125.695C95.3448 125.871 95.302 126.072 95.302 126.299C95.302 126.526 95.3448 126.729 95.4304 126.909C95.5203 127.088 95.6444 127.232 95.8028 127.339C95.9612 127.442 96.1409 127.493 96.3421 127.493Z" fill="#AAAAAA"/>
<path fill-rule="evenodd" clip-rule="evenodd" d="M101.615 124.674C101.559 124.614 101.486 124.585 101.397 124.585C101.307 124.585 101.234 124.614 101.178 124.674C101.123 124.734 101.095 124.809 101.095 124.899V125.053C100.979 124.908 100.823 124.788 100.626 124.694C100.434 124.599 100.224 124.552 99.9969 124.552C99.7144 124.552 99.4555 124.627 99.2201 124.777C98.9847 124.927 98.7985 125.137 98.6615 125.406C98.5288 125.672 98.4625 125.971 98.4625 126.305C98.4625 126.639 98.5288 126.941 98.6615 127.21C98.7985 127.476 98.9847 127.683 99.2201 127.833C99.4598 127.983 99.7251 128.058 100.016 128.058C100.239 128.058 100.446 128.007 100.639 127.904C100.832 127.797 100.984 127.668 101.095 127.519V127.686C101.095 127.775 101.123 127.85 101.178 127.91C101.234 127.966 101.307 127.994 101.397 127.994C101.486 127.994 101.559 127.964 101.615 127.904C101.675 127.844 101.705 127.771 101.705 127.686V124.899C101.705 124.805 101.675 124.73 101.615 124.674ZM100.62 127.339C100.466 127.442 100.288 127.493 100.087 127.493C99.8857 127.493 99.7059 127.442 99.5475 127.339C99.3934 127.236 99.2714 127.095 99.1816 126.915C99.096 126.735 99.0532 126.532 99.0532 126.305C99.0532 126.078 99.096 125.875 99.1816 125.695C99.2714 125.515 99.3934 125.374 99.5475 125.271C99.7059 125.169 99.8857 125.117 100.087 125.117C100.288 125.117 100.466 125.171 100.62 125.278C100.778 125.381 100.9 125.522 100.986 125.702C101.076 125.881 101.121 126.083 101.121 126.305C101.121 126.532 101.076 126.735 100.986 126.915C100.9 127.095 100.778 127.236 100.62 127.339Z" fill="#AAAAAA"/>
<path d="M104.076 124.552C104.414 124.552 104.694 124.606 104.917 124.713C105.143 124.82 105.257 124.957 105.257 125.124C105.257 125.197 105.233 125.263 105.186 125.323C105.139 125.378 105.079 125.406 105.006 125.406C104.951 125.406 104.906 125.398 104.872 125.381C104.842 125.364 104.799 125.336 104.743 125.297C104.718 125.271 104.677 125.242 104.621 125.207C104.57 125.182 104.497 125.16 104.403 125.143C104.309 125.126 104.223 125.117 104.146 125.117C103.924 125.117 103.727 125.169 103.555 125.271C103.384 125.374 103.252 125.518 103.157 125.702C103.063 125.881 103.016 126.083 103.016 126.305C103.016 126.532 103.061 126.735 103.151 126.915C103.245 127.095 103.376 127.236 103.543 127.339C103.71 127.442 103.9 127.493 104.114 127.493C104.337 127.493 104.516 127.459 104.653 127.39C104.683 127.373 104.724 127.345 104.775 127.307C104.818 127.272 104.855 127.247 104.884 127.23C104.919 127.213 104.959 127.204 105.006 127.204C105.092 127.204 105.158 127.232 105.206 127.287C105.257 127.339 105.283 127.407 105.283 127.493C105.283 127.583 105.225 127.673 105.109 127.763C104.998 127.848 104.846 127.919 104.653 127.974C104.465 128.03 104.262 128.058 104.043 128.058C103.718 128.058 103.431 127.983 103.183 127.833C102.935 127.679 102.742 127.469 102.605 127.204C102.473 126.934 102.406 126.635 102.406 126.305C102.406 125.976 102.477 125.678 102.618 125.413C102.759 125.143 102.956 124.933 103.209 124.784C103.461 124.629 103.75 124.552 104.076 124.552Z" fill="#AAAAAA"/>
<path d="M108.754 127.686C108.754 127.604 108.722 127.529 108.658 127.461L107.425 126.125L108.536 125.137C108.617 125.068 108.658 124.991 108.658 124.906C108.658 124.837 108.628 124.773 108.568 124.713C108.508 124.649 108.441 124.617 108.369 124.617C108.292 124.617 108.217 124.649 108.144 124.713L106.571 126.157V123.551C106.571 123.465 106.541 123.392 106.481 123.333C106.425 123.273 106.355 123.243 106.269 123.243C106.179 123.243 106.104 123.273 106.044 123.333C105.989 123.392 105.961 123.465 105.961 123.551V127.686C105.961 127.771 105.989 127.844 106.044 127.904C106.104 127.964 106.179 127.994 106.269 127.994C106.355 127.994 106.425 127.964 106.481 127.904C106.541 127.844 106.571 127.771 106.571 127.686V126.889L106.956 126.543L108.221 127.885C108.277 127.953 108.352 127.987 108.446 127.987C108.518 127.987 108.587 127.959 108.651 127.904C108.72 127.844 108.754 127.771 108.754 127.686Z" fill="#AAAAAA"/>
<g clip-path="url(#clip4_227_114)">
<path d="M143.91 127.417C143.927 127.713 143.997 127.953 144.12 128.138C144.354 128.484 144.767 128.657 145.36 128.657C145.625 128.657 145.866 128.619 146.084 128.543C146.506 128.396 146.717 128.133 146.717 127.754C146.717 127.47 146.628 127.268 146.45 127.147C146.27 127.028 145.988 126.925 145.605 126.838L144.898 126.678C144.436 126.574 144.109 126.459 143.917 126.333C143.586 126.115 143.42 125.79 143.42 125.356C143.42 124.887 143.582 124.502 143.907 124.202C144.231 123.901 144.69 123.75 145.285 123.75C145.832 123.75 146.296 123.883 146.678 124.148C147.061 124.411 147.253 124.833 147.253 125.413H146.589C146.553 125.134 146.477 124.919 146.361 124.77C146.146 124.498 145.78 124.361 145.264 124.361C144.847 124.361 144.547 124.449 144.365 124.624C144.182 124.8 144.091 125.003 144.091 125.235C144.091 125.491 144.198 125.678 144.411 125.797C144.551 125.873 144.867 125.967 145.36 126.081L146.091 126.248C146.444 126.328 146.717 126.439 146.908 126.578C147.24 126.822 147.406 127.176 147.406 127.641C147.406 128.218 147.195 128.632 146.773 128.88C146.354 129.129 145.866 129.253 145.31 129.253C144.661 129.253 144.153 129.088 143.786 128.756C143.419 128.427 143.239 127.98 143.246 127.417H143.91ZM148.202 123.882H148.816V126.912L150.458 125.296H151.275L149.818 126.72L151.356 129.101H150.539L149.353 127.182L148.816 127.673V129.101H148.202V123.882ZM151.854 125.314H152.504V129.101H151.854V125.314ZM151.854 123.882H152.504V124.607H151.854V123.882ZM155.079 128.671C155.378 128.671 155.625 128.546 155.822 128.298C156.021 128.047 156.12 127.673 156.12 127.175C156.12 126.872 156.077 126.611 155.989 126.394C155.823 125.974 155.52 125.765 155.079 125.765C154.637 125.765 154.333 125.986 154.17 126.429C154.082 126.666 154.039 126.967 154.039 127.331C154.039 127.625 154.082 127.875 154.17 128.081C154.336 128.474 154.639 128.671 155.079 128.671ZM153.424 125.314H154.046V125.818C154.174 125.645 154.313 125.511 154.465 125.417C154.68 125.274 154.934 125.203 155.225 125.203C155.656 125.203 156.022 125.369 156.323 125.701C156.624 126.03 156.774 126.501 156.774 127.115C156.774 127.944 156.557 128.536 156.124 128.891C155.849 129.116 155.529 129.229 155.165 129.229C154.878 129.229 154.638 129.166 154.444 129.04C154.33 128.969 154.203 128.847 154.063 128.674V130.618H153.424V125.314Z" fill="#AAAAAA"/>
<path d="M142.894 129.829H157.051V130.188H142.894V129.829Z" fill="#AAAAAA"/>
<rect x="166.009" y="117.646" width="35.9742" height="17.9095" rx="1.67901" fill="#2D87F1"/>
<path d="M177.514 129.601H176.42L174.281 125.881V129.601H173.262V124.364H174.409L176.494 128.02V124.364H177.514V129.601ZM181.77 128.464C181.744 128.694 181.624 128.927 181.411 129.164C181.08 129.54 180.615 129.729 180.019 129.729C179.526 129.729 179.091 129.57 178.715 129.252C178.338 128.935 178.15 128.419 178.15 127.704C178.15 127.033 178.319 126.519 178.658 126.162C178.999 125.804 179.441 125.625 179.983 125.625C180.305 125.625 180.595 125.686 180.853 125.806C181.112 125.927 181.325 126.118 181.493 126.378C181.644 126.608 181.743 126.875 181.788 127.178C181.814 127.355 181.824 127.611 181.82 127.945H179.17C179.184 128.334 179.306 128.606 179.535 128.762C179.675 128.859 179.843 128.908 180.04 128.908C180.248 128.908 180.418 128.849 180.548 128.73C180.619 128.666 180.682 128.577 180.736 128.464H181.77ZM180.768 127.277C180.752 127.01 180.67 126.807 180.523 126.67C180.379 126.53 180.199 126.46 179.983 126.46C179.749 126.46 179.566 126.534 179.436 126.68C179.308 126.827 179.228 127.026 179.194 127.277H180.768ZM185.955 129.601H184.694L184.026 128.439L183.354 129.601H182.125L183.447 127.64L182.182 125.735H183.422L184.069 126.858L184.701 125.735H185.905L184.633 127.622L185.955 129.601ZM188.328 128.879V129.636L187.849 129.654C187.37 129.671 187.043 129.588 186.868 129.405C186.754 129.289 186.697 129.11 186.697 128.869V126.485H186.157V125.764H186.697V124.684H187.699V125.764H188.328V126.485H187.699V128.531C187.699 128.69 187.719 128.789 187.76 128.83C187.8 128.868 187.923 128.887 188.129 128.887C188.16 128.887 188.192 128.887 188.225 128.887C188.261 128.884 188.295 128.882 188.328 128.879Z" fill="white"/>
<path d="M195.171 126.805L192.842 129.134C192.786 129.19 192.717 129.218 192.637 129.218C192.557 129.218 192.489 129.19 192.433 129.134L192.169 128.87C192.113 128.814 192.085 128.746 192.085 128.666C192.077 128.586 192.101 128.518 192.157 128.462L194.019 126.601L192.157 124.74C192.101 124.684 192.077 124.615 192.085 124.535C192.085 124.455 192.113 124.387 192.169 124.331L192.433 124.067C192.489 124.011 192.557 123.983 192.637 123.983C192.717 123.983 192.786 124.011 192.842 124.067L195.171 126.397C195.235 126.453 195.268 126.521 195.268 126.601C195.268 126.681 195.235 126.749 195.171 126.805Z" fill="white"/>
</g>
</g>
</g>
</g>
<defs>
<filter id="filter0_d_227_114" x="48.7676" y="4.05371" width="237.141" height="261.72" filterUnits="userSpaceOnUse" color-interpolation-filters="sRGB">
<feFlood flood-opacity="0" result="BackgroundImageFix"/>
<feColorMatrix in="SourceAlpha" type="matrix" values="0 0 0 0 0 0 0 0 0 0 0 0 0 0 0 0 0 0 127 0" result="hardAlpha"/>
<feOffset dx="8" dy="12"/>
<feGaussianBlur stdDeviation="12"/>
<feColorMatrix type="matrix" values="0 0 0 0 0.689332 0 0 0 0 0.773247 0 0 0 0 0.873944 0 0 0 1 0"/>
<feBlend mode="normal" in2="BackgroundImageFix" result="effect1_dropShadow_227_114"/>
<feBlend mode="normal" in="SourceGraphic" in2="effect1_dropShadow_227_114" result="shape"/>
</filter>
<filter id="filter1_d_227_114" x="24" y="94.6912" width="230.535" height="87.8189" filterUnits="userSpaceOnUse" color-interpolation-filters="sRGB">
<feFlood flood-opacity="0" result="BackgroundImageFix"/>
<feColorMatrix in="SourceAlpha" type="matrix" values="0 0 0 0 0 0 0 0 0 0 0 0 0 0 0 0 0 0 127 0" result="hardAlpha"/>
<feMorphology radius="2" operator="dilate" in="SourceAlpha" result="effect1_dropShadow_227_114"/>
<feOffset dx="12" dy="12"/>
<feGaussianBlur stdDeviation="12"/>
<feComposite in2="hardAlpha" operator="out"/>
<feColorMatrix type="matrix" values="0 0 0 0 0.465807 0 0 0 0 0.571433 0 0 0 0 0.695699 0 0 0 0.2 0"/>
<feBlend mode="normal" in2="BackgroundImageFix" result="effect1_dropShadow_227_114"/>
<feBlend mode="normal" in="SourceGraphic" in2="effect1_dropShadow_227_114" result="shape"/>
</filter>
<clipPath id="clip0_227_114">
<rect width="323" height="160" fill="white"/>
</clipPath>
<clipPath id="clip1_227_114">
<rect width="189" height="213.685" fill="white" transform="translate(64.7676 30.1518)"/>
</clipPath>
<clipPath id="clip2_227_114">
<rect width="157" height="108.699" fill="white" transform="translate(80.7676 83.4453)"/>
</clipPath>
<clipPath id="clip3_227_114">
<rect width="151.671" height="17.9095" fill="white" transform="translate(51.4321 117.646)"/>
</clipPath>
<clipPath id="clip4_227_114">
<rect width="59.9289" height="17.9095" fill="white" transform="translate(142.055 117.646)"/>
</clipPath>
</defs>
</svg>
