<svg width="150" height="150" viewBox="0 0 150 150" fill="none" xmlns="http://www.w3.org/2000/svg">
<g filter="url(#filter0_d_1044_122)">
<rect x="35" y="19" width="80" height="112" rx="11.1" fill="#D8E6FA"/>
<rect x="32.5719" y="16.5719" width="84.8562" height="116.856" rx="13.5281" stroke="#4885E9" stroke-width="4.85625"/>
</g>
<line x1="53.25" y1="133" x2="53.25" y2="16" stroke="#4885E9" stroke-width="3.5"/>
<rect x="20" y="57" width="110" height="40" rx="2" fill="white" stroke="#4885E9" stroke-width="4" stroke-linecap="round" stroke-linejoin="round"/>
<path d="M35.0003 68.6667L37.5753 73.8834L43.3337 74.7251L39.167 78.7834L40.1503 84.5167L35.0003 81.8084L29.8503 84.5167L30.8337 78.7834L26.667 74.7251L32.4253 73.8834L35.0003 68.6667Z" fill="#6ABC53"/>
<path d="M55.0003 68.6667L57.5753 73.8834L63.3337 74.7251L59.167 78.7834L60.1503 84.5167L55.0003 81.8084L49.8503 84.5167L50.8337 78.7834L46.667 74.7251L52.4253 73.8834L55.0003 68.6667Z" fill="#6ABC53"/>
<path d="M75.0003 68.6667L77.5753 73.8834L83.3337 74.7251L79.167 78.7834L80.1503 84.5167L75.0003 81.8084L69.8503 84.5167L70.8337 78.7834L66.667 74.7251L72.4253 73.8834L75.0003 68.6667Z" fill="#6ABC53"/>
<path d="M95.0003 68.6667L97.5753 73.8834L103.334 74.7251L99.167 78.7834L100.15 84.5167L95.0003 81.8084L89.8503 84.5167L90.8337 78.7834L86.667 74.7251L92.4253 73.8834L95.0003 68.6667Z" fill="#6ABC53"/>
<path d="M115 68.6667L117.575 73.8834L123.334 74.7251L119.167 78.7834L120.15 84.5167L115 81.8084L109.85 84.5167L110.834 78.7834L106.667 74.7251L112.425 73.8834L115 68.6667Z" fill="#6ABC53"/>
<line x1="66.5" y1="32.5" x2="103.5" y2="32.5" stroke="#B3C0CB" stroke-width="3" stroke-linecap="round"/>
<line x1="66.5" y1="40.5" x2="103.5" y2="40.5" stroke="#B3C0CB" stroke-width="3" stroke-linecap="round"/>
<defs>
<filter id="filter0_d_1044_122" x="25.9811" y="14.1438" width="93.8754" height="128.65" filterUnits="userSpaceOnUse" color-interpolation-filters="sRGB">
<feFlood flood-opacity="0" result="BackgroundImageFix"/>
<feColorMatrix in="SourceAlpha" type="matrix" values="0 0 0 0 0 0 0 0 0 0 0 0 0 0 0 0 0 0 127 0" result="hardAlpha"/>
<feOffset dx="-4.1625" dy="6.9375"/>
<feComposite in2="hardAlpha" operator="out"/>
<feColorMatrix type="matrix" values="0 0 0 0 0.0431373 0 0 0 0 0.145098 0 0 0 0 0.0980392 0 0 0 1 0"/>
<feBlend mode="normal" in2="BackgroundImageFix" result="effect1_dropShadow_1044_122"/>
<feBlend mode="normal" in="SourceGraphic" in2="effect1_dropShadow_1044_122" result="shape"/>
</filter>
</defs>
</svg>
