<svg width="151" height="150" viewBox="0 0 151 150" fill="none" xmlns="http://www.w3.org/2000/svg">
<g clip-path="url(#clip0_4245_200)">
<g filter="url(#filter0_d_4245_200)">
<mask id="path-1-outside-1_4245_200" maskUnits="userSpaceOnUse" x="5" y="12" width="142" height="126" fill="black">
<rect fill="white" x="5" y="12" width="142" height="126"/>
<path fill-rule="evenodd" clip-rule="evenodd" d="M78.7682 29.9075C75.1219 29.2657 71.3659 29.9083 68.1403 31.7258C64.9147 33.5433 62.4193 36.4232 61.0793 39.8746C59.7392 43.3261 59.6376 47.1354 60.7917 50.6534C61.9458 54.1714 64.2841 57.1803 67.4082 59.1673C68.6 59.9273 69.4414 61.1295 69.7474 62.5096C70.0534 63.8897 69.799 65.3349 69.0402 66.5275L51.8709 93.5082C49.5517 97.1526 49.9184 101.92 49.1724 106.175C48.7669 108.488 47.6096 110.602 45.88 112.19C44.1504 113.778 41.9451 114.751 39.6062 114.958C37.2673 115.165 34.9254 114.595 32.9438 113.335C30.9622 112.075 29.4516 110.197 28.6463 107.991C27.841 105.785 27.786 103.376 28.4897 101.135C29.1935 98.8952 30.6168 96.9498 32.5388 95.601C36.0752 93.1192 40.5487 91.4305 42.8683 87.7857L50.9787 75.042C54.7547 69.1089 53.3485 61.4078 50.9402 54.8002C50.7527 54.2857 50.5807 53.7647 50.4248 53.2378C49.1184 48.8251 48.9762 44.1494 50.012 39.6655C51.0477 35.1815 53.2262 31.042 56.3355 27.6493C59.4448 24.2566 63.3791 21.7264 67.7559 20.3046C72.1326 18.8828 76.8028 18.6179 81.3122 19.5356C85.8216 20.4533 90.0168 22.5224 93.4898 25.5417C96.9628 28.5609 99.5954 32.4276 101.132 36.7657C102.668 41.1037 103.055 45.7655 102.256 50.2976C102.134 50.9875 101.878 51.6466 101.501 52.2374C101.125 52.8281 100.635 53.3389 100.061 53.7406C99.4874 54.1422 98.8399 54.4269 98.1559 54.5783C97.4719 54.7297 96.7648 54.745 96.0749 54.6231C95.385 54.5012 94.7259 54.2446 94.1352 53.868C93.5444 53.4914 93.0337 53.0022 92.632 52.4281C92.2304 51.8541 91.9457 51.2066 91.7943 50.5226C91.6429 49.8386 91.6277 49.1314 91.7495 48.4415C92.4859 44.263 91.5326 39.9632 89.0992 36.4875C86.6658 33.0119 82.9463 30.645 78.7682 29.9075ZM65.3282 45.6628C65.3293 44.0465 65.6978 42.4517 66.4056 40.9987C67.1134 39.5457 68.1422 38.2726 69.4141 37.2755C70.686 36.2784 72.1679 35.5833 73.7478 35.2429C75.3277 34.9024 76.9644 34.9254 78.5341 35.3101C80.1038 35.6949 81.5656 36.4313 82.809 37.4638C84.0524 38.4963 85.0449 39.7978 85.7116 41.2701C86.3783 42.7424 86.7018 44.347 86.6575 45.9626C86.5757 48.9492 86.4442 52.1487 88.0484 54.6693L97.3143 69.2287C101.091 75.1622 108.663 77.1491 115.669 77.7653C116.31 77.8216 116.949 77.9012 117.586 78.0042C122.226 78.7537 126.585 80.7161 130.222 83.6925C133.859 86.6689 136.644 90.5536 138.297 94.9531C139.95 99.3527 140.41 104.111 139.632 108.746C138.854 113.381 136.865 117.727 133.866 121.346C130.868 124.965 126.966 127.727 122.557 129.352C118.147 130.978 113.386 131.409 108.756 130.602C104.127 129.796 99.7923 127.78 96.1922 124.759C95.1423 123.84 94.4942 122.547 94.3868 121.156C94.2795 119.764 94.7216 118.387 95.6182 117.318C96.5147 116.249 97.7945 115.574 99.183 115.437C100.571 115.301 101.958 115.714 103.046 116.588C105.311 118.487 108.058 119.722 110.982 120.155C113.906 120.588 116.893 120.202 119.611 119.041C122.33 117.879 124.673 115.988 126.382 113.575C128.09 111.163 129.097 108.324 129.291 105.375C129.485 102.425 128.857 99.4791 127.479 96.8642C126.1 94.2493 124.024 92.0674 121.481 90.5607C118.937 89.0539 116.026 88.2812 113.071 88.3282C110.115 88.3753 107.23 89.2402 104.736 90.8271C103.543 91.5855 102.097 91.8391 100.717 91.532C99.3372 91.225 98.1354 90.3825 97.3762 89.1897L78.7643 59.9494C77.3343 57.7029 74.7249 56.5828 72.2331 55.6436C70.8862 55.136 69.656 54.3611 68.6166 53.3654C67.5772 52.3698 66.75 51.1741 66.1848 49.8503C65.6197 48.5266 65.3283 47.1021 65.3282 45.6628ZM36.3788 82.4641C36.8613 83.7931 36.7964 85.2593 36.1983 86.5405C35.6003 87.8216 34.518 88.8129 33.1894 89.2964C30.4395 90.2983 28.0171 92.0354 26.1858 94.3185C24.3545 96.6017 23.1845 99.3434 22.8031 102.245C22.4218 105.147 22.8437 108.098 24.0229 110.777C25.2021 113.456 27.0935 115.76 29.4911 117.438C31.8888 119.117 34.7009 120.105 37.6214 120.297C40.5419 120.488 43.459 119.874 46.055 118.523C48.6511 117.171 50.8267 115.134 52.3451 112.631C53.8635 110.129 54.6665 107.258 54.6668 104.332C54.6668 102.917 55.2287 101.56 56.2289 100.56C57.2291 99.56 58.5857 98.9981 60.0002 98.9981H97.1043C101.424 98.9981 105.25 96.1298 109.241 94.4765C111.411 93.5779 113.816 93.4202 116.084 94.028C118.352 94.6358 120.356 95.975 121.786 97.8379C123.215 99.7008 123.99 101.983 123.99 104.332C123.99 106.68 123.215 108.962 121.786 110.825C120.356 112.688 118.352 114.027 116.084 114.635C113.816 115.243 111.411 115.085 109.241 114.187C105.25 112.533 101.424 109.665 97.1042 109.665H76.8794C69.8464 109.665 64.1043 114.987 59.823 120.566C59.4607 121.039 59.0821 121.499 58.6876 121.948C55.6157 125.439 51.6841 128.067 47.2831 129.57C42.882 131.072 38.1645 131.398 33.5988 130.514C29.0331 129.63 24.7778 127.568 21.2555 124.531C17.7331 121.495 15.066 117.59 13.5189 113.204C11.9718 108.818 11.5985 104.104 12.4361 99.5294C13.2736 94.9548 15.2929 90.6788 18.2935 87.1257C21.2941 83.5727 25.1717 80.8661 29.5414 79.2747C30.8703 78.7902 32.3373 78.8535 33.6195 79.4506C34.9017 80.0478 35.8943 81.1352 36.3788 82.4641Z"/>
</mask>
<path fill-rule="evenodd" clip-rule="evenodd" d="M78.7682 29.9075C75.1219 29.2657 71.3659 29.9083 68.1403 31.7258C64.9147 33.5433 62.4193 36.4232 61.0793 39.8746C59.7392 43.3261 59.6376 47.1354 60.7917 50.6534C61.9458 54.1714 64.2841 57.1803 67.4082 59.1673C68.6 59.9273 69.4414 61.1295 69.7474 62.5096C70.0534 63.8897 69.799 65.3349 69.0402 66.5275L51.8709 93.5082C49.5517 97.1526 49.9184 101.92 49.1724 106.175C48.7669 108.488 47.6096 110.602 45.88 112.19C44.1504 113.778 41.9451 114.751 39.6062 114.958C37.2673 115.165 34.9254 114.595 32.9438 113.335C30.9622 112.075 29.4516 110.197 28.6463 107.991C27.841 105.785 27.786 103.376 28.4897 101.135C29.1935 98.8952 30.6168 96.9498 32.5388 95.601C36.0752 93.1192 40.5487 91.4305 42.8683 87.7857L50.9787 75.042C54.7547 69.1089 53.3485 61.4078 50.9402 54.8002C50.7527 54.2857 50.5807 53.7647 50.4248 53.2378C49.1184 48.8251 48.9762 44.1494 50.012 39.6655C51.0477 35.1815 53.2262 31.042 56.3355 27.6493C59.4448 24.2566 63.3791 21.7264 67.7559 20.3046C72.1326 18.8828 76.8028 18.6179 81.3122 19.5356C85.8216 20.4533 90.0168 22.5224 93.4898 25.5417C96.9628 28.5609 99.5954 32.4276 101.132 36.7657C102.668 41.1037 103.055 45.7655 102.256 50.2976C102.134 50.9875 101.878 51.6466 101.501 52.2374C101.125 52.8281 100.635 53.3389 100.061 53.7406C99.4874 54.1422 98.8399 54.4269 98.1559 54.5783C97.4719 54.7297 96.7648 54.745 96.0749 54.6231C95.385 54.5012 94.7259 54.2446 94.1352 53.868C93.5444 53.4914 93.0337 53.0022 92.632 52.4281C92.2304 51.8541 91.9457 51.2066 91.7943 50.5226C91.6429 49.8386 91.6277 49.1314 91.7495 48.4415C92.4859 44.263 91.5326 39.9632 89.0992 36.4875C86.6658 33.0119 82.9463 30.645 78.7682 29.9075ZM65.3282 45.6628C65.3293 44.0465 65.6978 42.4517 66.4056 40.9987C67.1134 39.5457 68.1422 38.2726 69.4141 37.2755C70.686 36.2784 72.1679 35.5833 73.7478 35.2429C75.3277 34.9024 76.9644 34.9254 78.5341 35.3101C80.1038 35.6949 81.5656 36.4313 82.809 37.4638C84.0524 38.4963 85.0449 39.7978 85.7116 41.2701C86.3783 42.7424 86.7018 44.347 86.6575 45.9626C86.5757 48.9492 86.4442 52.1487 88.0484 54.6693L97.3143 69.2287C101.091 75.1622 108.663 77.1491 115.669 77.7653C116.31 77.8216 116.949 77.9012 117.586 78.0042C122.226 78.7537 126.585 80.7161 130.222 83.6925C133.859 86.6689 136.644 90.5536 138.297 94.9531C139.95 99.3527 140.41 104.111 139.632 108.746C138.854 113.381 136.865 117.727 133.866 121.346C130.868 124.965 126.966 127.727 122.557 129.352C118.147 130.978 113.386 131.409 108.756 130.602C104.127 129.796 99.7923 127.78 96.1922 124.759C95.1423 123.84 94.4942 122.547 94.3868 121.156C94.2795 119.764 94.7216 118.387 95.6182 117.318C96.5147 116.249 97.7945 115.574 99.183 115.437C100.571 115.301 101.958 115.714 103.046 116.588C105.311 118.487 108.058 119.722 110.982 120.155C113.906 120.588 116.893 120.202 119.611 119.041C122.33 117.879 124.673 115.988 126.382 113.575C128.09 111.163 129.097 108.324 129.291 105.375C129.485 102.425 128.857 99.4791 127.479 96.8642C126.1 94.2493 124.024 92.0674 121.481 90.5607C118.937 89.0539 116.026 88.2812 113.071 88.3282C110.115 88.3753 107.23 89.2402 104.736 90.8271C103.543 91.5855 102.097 91.8391 100.717 91.532C99.3372 91.225 98.1354 90.3825 97.3762 89.1897L78.7643 59.9494C77.3343 57.7029 74.7249 56.5828 72.2331 55.6436C70.8862 55.136 69.656 54.3611 68.6166 53.3654C67.5772 52.3698 66.75 51.1741 66.1848 49.8503C65.6197 48.5266 65.3283 47.1021 65.3282 45.6628ZM36.3788 82.4641C36.8613 83.7931 36.7964 85.2593 36.1983 86.5405C35.6003 87.8216 34.518 88.8129 33.1894 89.2964C30.4395 90.2983 28.0171 92.0354 26.1858 94.3185C24.3545 96.6017 23.1845 99.3434 22.8031 102.245C22.4218 105.147 22.8437 108.098 24.0229 110.777C25.2021 113.456 27.0935 115.76 29.4911 117.438C31.8888 119.117 34.7009 120.105 37.6214 120.297C40.5419 120.488 43.459 119.874 46.055 118.523C48.6511 117.171 50.8267 115.134 52.3451 112.631C53.8635 110.129 54.6665 107.258 54.6668 104.332C54.6668 102.917 55.2287 101.56 56.2289 100.56C57.2291 99.56 58.5857 98.9981 60.0002 98.9981H97.1043C101.424 98.9981 105.25 96.1298 109.241 94.4765C111.411 93.5779 113.816 93.4202 116.084 94.028C118.352 94.6358 120.356 95.975 121.786 97.8379C123.215 99.7008 123.99 101.983 123.99 104.332C123.99 106.68 123.215 108.962 121.786 110.825C120.356 112.688 118.352 114.027 116.084 114.635C113.816 115.243 111.411 115.085 109.241 114.187C105.25 112.533 101.424 109.665 97.1042 109.665H76.8794C69.8464 109.665 64.1043 114.987 59.823 120.566C59.4607 121.039 59.0821 121.499 58.6876 121.948C55.6157 125.439 51.6841 128.067 47.2831 129.57C42.882 131.072 38.1645 131.398 33.5988 130.514C29.0331 129.63 24.7778 127.568 21.2555 124.531C17.7331 121.495 15.066 117.59 13.5189 113.204C11.9718 108.818 11.5985 104.104 12.4361 99.5294C13.2736 94.9548 15.2929 90.6788 18.2935 87.1257C21.2941 83.5727 25.1717 80.8661 29.5414 79.2747C30.8703 78.7902 32.3373 78.8535 33.6195 79.4506C34.9017 80.0478 35.8943 81.1352 36.3788 82.4641Z" fill="#D8E6FA"/>
<path fill-rule="evenodd" clip-rule="evenodd" d="M78.7682 29.9075C75.1219 29.2657 71.3659 29.9083 68.1403 31.7258C64.9147 33.5433 62.4193 36.4232 61.0793 39.8746C59.7392 43.3261 59.6376 47.1354 60.7917 50.6534C61.9458 54.1714 64.2841 57.1803 67.4082 59.1673C68.6 59.9273 69.4414 61.1295 69.7474 62.5096C70.0534 63.8897 69.799 65.3349 69.0402 66.5275L51.8709 93.5082C49.5517 97.1526 49.9184 101.92 49.1724 106.175C48.7669 108.488 47.6096 110.602 45.88 112.19C44.1504 113.778 41.9451 114.751 39.6062 114.958C37.2673 115.165 34.9254 114.595 32.9438 113.335C30.9622 112.075 29.4516 110.197 28.6463 107.991C27.841 105.785 27.786 103.376 28.4897 101.135C29.1935 98.8952 30.6168 96.9498 32.5388 95.601C36.0752 93.1192 40.5487 91.4305 42.8683 87.7857L50.9787 75.042C54.7547 69.1089 53.3485 61.4078 50.9402 54.8002C50.7527 54.2857 50.5807 53.7647 50.4248 53.2378C49.1184 48.8251 48.9762 44.1494 50.012 39.6655C51.0477 35.1815 53.2262 31.042 56.3355 27.6493C59.4448 24.2566 63.3791 21.7264 67.7559 20.3046C72.1326 18.8828 76.8028 18.6179 81.3122 19.5356C85.8216 20.4533 90.0168 22.5224 93.4898 25.5417C96.9628 28.5609 99.5954 32.4276 101.132 36.7657C102.668 41.1037 103.055 45.7655 102.256 50.2976C102.134 50.9875 101.878 51.6466 101.501 52.2374C101.125 52.8281 100.635 53.3389 100.061 53.7406C99.4874 54.1422 98.8399 54.4269 98.1559 54.5783C97.4719 54.7297 96.7648 54.745 96.0749 54.6231C95.385 54.5012 94.7259 54.2446 94.1352 53.868C93.5444 53.4914 93.0337 53.0022 92.632 52.4281C92.2304 51.8541 91.9457 51.2066 91.7943 50.5226C91.6429 49.8386 91.6277 49.1314 91.7495 48.4415C92.4859 44.263 91.5326 39.9632 89.0992 36.4875C86.6658 33.0119 82.9463 30.645 78.7682 29.9075ZM65.3282 45.6628C65.3293 44.0465 65.6978 42.4517 66.4056 40.9987C67.1134 39.5457 68.1422 38.2726 69.4141 37.2755C70.686 36.2784 72.1679 35.5833 73.7478 35.2429C75.3277 34.9024 76.9644 34.9254 78.5341 35.3101C80.1038 35.6949 81.5656 36.4313 82.809 37.4638C84.0524 38.4963 85.0449 39.7978 85.7116 41.2701C86.3783 42.7424 86.7018 44.347 86.6575 45.9626C86.5757 48.9492 86.4442 52.1487 88.0484 54.6693L97.3143 69.2287C101.091 75.1622 108.663 77.1491 115.669 77.7653C116.31 77.8216 116.949 77.9012 117.586 78.0042C122.226 78.7537 126.585 80.7161 130.222 83.6925C133.859 86.6689 136.644 90.5536 138.297 94.9531C139.95 99.3527 140.41 104.111 139.632 108.746C138.854 113.381 136.865 117.727 133.866 121.346C130.868 124.965 126.966 127.727 122.557 129.352C118.147 130.978 113.386 131.409 108.756 130.602C104.127 129.796 99.7923 127.78 96.1922 124.759C95.1423 123.84 94.4942 122.547 94.3868 121.156C94.2795 119.764 94.7216 118.387 95.6182 117.318C96.5147 116.249 97.7945 115.574 99.183 115.437C100.571 115.301 101.958 115.714 103.046 116.588C105.311 118.487 108.058 119.722 110.982 120.155C113.906 120.588 116.893 120.202 119.611 119.041C122.33 117.879 124.673 115.988 126.382 113.575C128.09 111.163 129.097 108.324 129.291 105.375C129.485 102.425 128.857 99.4791 127.479 96.8642C126.1 94.2493 124.024 92.0674 121.481 90.5607C118.937 89.0539 116.026 88.2812 113.071 88.3282C110.115 88.3753 107.23 89.2402 104.736 90.8271C103.543 91.5855 102.097 91.8391 100.717 91.532C99.3372 91.225 98.1354 90.3825 97.3762 89.1897L78.7643 59.9494C77.3343 57.7029 74.7249 56.5828 72.2331 55.6436C70.8862 55.136 69.656 54.3611 68.6166 53.3654C67.5772 52.3698 66.75 51.1741 66.1848 49.8503C65.6197 48.5266 65.3283 47.1021 65.3282 45.6628ZM36.3788 82.4641C36.8613 83.7931 36.7964 85.2593 36.1983 86.5405C35.6003 87.8216 34.518 88.8129 33.1894 89.2964C30.4395 90.2983 28.0171 92.0354 26.1858 94.3185C24.3545 96.6017 23.1845 99.3434 22.8031 102.245C22.4218 105.147 22.8437 108.098 24.0229 110.777C25.2021 113.456 27.0935 115.76 29.4911 117.438C31.8888 119.117 34.7009 120.105 37.6214 120.297C40.5419 120.488 43.459 119.874 46.055 118.523C48.6511 117.171 50.8267 115.134 52.3451 112.631C53.8635 110.129 54.6665 107.258 54.6668 104.332C54.6668 102.917 55.2287 101.56 56.2289 100.56C57.2291 99.56 58.5857 98.9981 60.0002 98.9981H97.1043C101.424 98.9981 105.25 96.1298 109.241 94.4765C111.411 93.5779 113.816 93.4202 116.084 94.028C118.352 94.6358 120.356 95.975 121.786 97.8379C123.215 99.7008 123.99 101.983 123.99 104.332C123.99 106.68 123.215 108.962 121.786 110.825C120.356 112.688 118.352 114.027 116.084 114.635C113.816 115.243 111.411 115.085 109.241 114.187C105.25 112.533 101.424 109.665 97.1042 109.665H76.8794C69.8464 109.665 64.1043 114.987 59.823 120.566C59.4607 121.039 59.0821 121.499 58.6876 121.948C55.6157 125.439 51.6841 128.067 47.2831 129.57C42.882 131.072 38.1645 131.398 33.5988 130.514C29.0331 129.63 24.7778 127.568 21.2555 124.531C17.7331 121.495 15.066 117.59 13.5189 113.204C11.9718 108.818 11.5985 104.104 12.4361 99.5294C13.2736 94.9548 15.2929 90.6788 18.2935 87.1257C21.2941 83.5727 25.1717 80.8661 29.5414 79.2747C30.8703 78.7902 32.3373 78.8535 33.6195 79.4506C34.9017 80.0478 35.8943 81.1352 36.3788 82.4641Z" stroke="#4885E9" stroke-width="12.95" mask="url(#path-1-outside-1_4245_200)"/>
</g>
<circle cx="113.5" cy="104.5" r="3.5" fill="white" stroke="#4885E9" stroke-width="3"/>
<circle cx="38.5" cy="104.5" r="3.5" fill="white" stroke="#4885E9" stroke-width="3"/>
<circle cx="75.5" cy="45.5" r="3.5" fill="white" stroke="#4885E9" stroke-width="3"/>
</g>
<defs>
<filter id="filter0_d_4245_200" x="-0.0249753" y="12.525" width="146.5" height="134.2" filterUnits="userSpaceOnUse" color-interpolation-filters="sRGB">
<feFlood flood-opacity="0" result="BackgroundImageFix"/>
<feColorMatrix in="SourceAlpha" type="matrix" values="0 0 0 0 0 0 0 0 0 0 0 0 0 0 0 0 0 0 127 0" result="hardAlpha"/>
<feOffset dx="-5.55" dy="9.25"/>
<feComposite in2="hardAlpha" operator="out"/>
<feColorMatrix type="matrix" values="0 0 0 0 0.0431373 0 0 0 0 0.145098 0 0 0 0 0.0980392 0 0 0 1 0"/>
<feBlend mode="normal" in2="BackgroundImageFix" result="effect1_dropShadow_4245_200"/>
<feBlend mode="normal" in="SourceGraphic" in2="effect1_dropShadow_4245_200" result="shape"/>
</filter>
<clipPath id="clip0_4245_200">
<rect width="151" height="150" fill="white"/>
</clipPath>
</defs>
</svg>
